<?xml version="1.0" encoding="utf-8" standalone="no"?>
<!DOCTYPE svg PUBLIC "-//W3C//DTD SVG 1.1//EN"
  "http://www.w3.org/Graphics/SVG/1.1/DTD/svg11.dtd">
<svg xmlns:xlink="http://www.w3.org/1999/xlink" width="523.338482pt" height="336.27625pt" viewBox="0 0 523.338482 336.27625" xmlns="http://www.w3.org/2000/svg" version="1.1">
 <metadata>
  <rdf:RDF xmlns:dc="http://purl.org/dc/elements/1.1/" xmlns:cc="http://creativecommons.org/ns#" xmlns:rdf="http://www.w3.org/1999/02/22-rdf-syntax-ns#">
   <cc:Work>
    <dc:type rdf:resource="http://purl.org/dc/dcmitype/StillImage"/>
    <dc:date>2026-07-10</dc:date>
    <dc:format>image/svg+xml</dc:format>
    <dc:creator>
     <cc:Agent>
      <dc:title>generate_optimization_figures.py</dc:title>
     </cc:Agent>
    </dc:creator>
   </cc:Work>
  </rdf:RDF>
 </metadata>
 <defs>
  <style type="text/css">*{stroke-linejoin: round; stroke-linecap: butt}</style>
 </defs>
 <g id="figure_1">
  <g id="patch_1">
   <path d="M 0 336.27625
L 523.338482 336.27625
L 523.338482 0
L 0 0
z
" style="fill: #ffffff"/>
  </g>
  <g id="axes_1">
   <g id="patch_2">
    <path d="M 51.565625 297.998125
L 516.138482 297.998125
L 516.138482 22.318125
L 51.565625 22.318125
z
" style="fill: #ffffff"/>
   </g>
   <g id="PolyCollection_1">
    <defs>
     <path id="mf92685312f" d="M 72.682573 -301.427216
L 72.682573 -50.809034
L 87.245986 -50.809034
L 101.809398 -50.809034
L 116.37281 -50.809034
L 130.936223 -50.809034
L 145.499635 -50.809034
L 160.063048 -50.809034
L 174.62646 -50.809034
L 189.189873 -50.809034
L 203.753285 -50.809034
L 218.316698 -50.809034
L 232.88011 -50.809034
L 247.443522 -50.809034
L 262.006935 -50.809034
L 276.570347 -50.809034
L 291.13376 -50.809034
L 305.697172 -50.809034
L 320.260585 -50.809034
L 334.823997 -50.809034
L 349.38741 -50.809034
L 363.950822 -50.809034
L 378.514234 -50.809034
L 393.077647 -50.809034
L 407.641059 -50.809034
L 422.204472 -50.809034
L 436.767884 -50.809034
L 451.331297 -50.809034
L 465.894709 -50.809034
L 480.458122 -50.809034
L 495.021534 -50.809034
L 495.021534 -50.809034
L 495.021534 -50.809034
L 480.458122 -67.28742
L 465.894709 -83.765805
L 451.331297 -100.244191
L 436.767884 -116.722576
L 422.204472 -133.200962
L 407.641059 -148.41047
L 393.077647 -162.473861
L 378.514234 -176.537252
L 363.950822 -186.64153
L 349.38741 -192.380815
L 334.823997 -198.120099
L 320.260585 -203.859383
L 305.697172 -209.598668
L 291.13376 -215.337952
L 276.570347 -221.077236
L 262.006935 -226.81652
L 247.443522 -232.555805
L 232.88011 -238.295089
L 218.316698 -244.034373
L 203.753285 -249.773657
L 189.189873 -255.512942
L 174.62646 -261.252226
L 160.063048 -266.99151
L 145.499635 -272.730795
L 130.936223 -278.470079
L 116.37281 -284.209363
L 101.809398 -289.948647
L 87.245986 -295.687932
L 72.682573 -301.427216
z
" style="stroke: #dbeafe; stroke-opacity: 0.9"/>
    </defs>
    <g clip-path="url(#pab55a588a6)">
     <use xlink:href="#mf92685312f" x="0" y="336.27625" style="fill: #dbeafe; fill-opacity: 0.9; stroke: #dbeafe; stroke-opacity: 0.9"/>
    </g>
   </g>
   <g id="matplotlib.axis_1">
    <g id="xtick_1">
     <g id="line2d_1">
      <path d="M 72.682573 297.998125
L 72.682573 22.318125
" clip-path="url(#pab55a588a6)" style="fill: none; stroke: #b0b0b0; stroke-opacity: 0.18; stroke-width: 0.8; stroke-linecap: square"/>
     </g>
     <g id="line2d_2">
      <defs>
       <path id="m98b229d225" d="M 0 0
L 0 3.5
" style="stroke: #000000; stroke-width: 0.8"/>
      </defs>
      <g>
       <use xlink:href="#m98b229d225" x="72.682573" y="297.998125" style="stroke: #000000; stroke-width: 0.8"/>
      </g>
     </g>
     <g id="text_1">
      <!-- 0.0 -->
      <g transform="translate(64.731011 312.596562) scale(0.1 -0.1)">
       <defs>
        <path id="DejaVuSans-30" d="M 2034 4250
Q 1547 4250 1301 3770
Q 1056 3291 1056 2328
Q 1056 1369 1301 889
Q 1547 409 2034 409
Q 2525 409 2770 889
Q 3016 1369 3016 2328
Q 3016 3291 2770 3770
Q 2525 4250 2034 4250
z
M 2034 4750
Q 2819 4750 3233 4129
Q 3647 3509 3647 2328
Q 3647 1150 3233 529
Q 2819 -91 2034 -91
Q 1250 -91 836 529
Q 422 1150 422 2328
Q 422 3509 836 4129
Q 1250 4750 2034 4750
z
" transform="scale(0.015625)"/>
        <path id="DejaVuSans-2e" d="M 684 794
L 1344 794
L 1344 0
L 684 0
L 684 794
z
" transform="scale(0.015625)"/>
       </defs>
       <use xlink:href="#DejaVuSans-30"/>
       <use xlink:href="#DejaVuSans-2e" x="63.623047"/>
       <use xlink:href="#DejaVuSans-30" x="95.410156"/>
      </g>
     </g>
    </g>
    <g id="xtick_2">
     <g id="line2d_3">
      <path d="M 169.336325 297.998125
L 169.336325 22.318125
" clip-path="url(#pab55a588a6)" style="fill: none; stroke: #b0b0b0; stroke-opacity: 0.18; stroke-width: 0.8; stroke-linecap: square"/>
     </g>
     <g id="line2d_4">
      <g>
       <use xlink:href="#m98b229d225" x="169.336325" y="297.998125" style="stroke: #000000; stroke-width: 0.8"/>
      </g>
     </g>
     <g id="text_2">
      <!-- 0.2 -->
      <g transform="translate(161.384762 312.596562) scale(0.1 -0.1)">
       <defs>
        <path id="DejaVuSans-32" d="M 1228 531
L 3431 531
L 3431 0
L 469 0
L 469 531
Q 828 903 1448 1529
Q 2069 2156 2228 2338
Q 2531 2678 2651 2914
Q 2772 3150 2772 3378
Q 2772 3750 2511 3984
Q 2250 4219 1831 4219
Q 1534 4219 1204 4116
Q 875 4013 500 3803
L 500 4441
Q 881 4594 1212 4672
Q 1544 4750 1819 4750
Q 2544 4750 2975 4387
Q 3406 4025 3406 3419
Q 3406 3131 3298 2873
Q 3191 2616 2906 2266
Q 2828 2175 2409 1742
Q 1991 1309 1228 531
z
" transform="scale(0.015625)"/>
       </defs>
       <use xlink:href="#DejaVuSans-30"/>
       <use xlink:href="#DejaVuSans-2e" x="63.623047"/>
       <use xlink:href="#DejaVuSans-32" x="95.410156"/>
      </g>
     </g>
    </g>
    <g id="xtick_3">
     <g id="line2d_5">
      <path d="M 265.990076 297.998125
L 265.990076 22.318125
" clip-path="url(#pab55a588a6)" style="fill: none; stroke: #b0b0b0; stroke-opacity: 0.18; stroke-width: 0.8; stroke-linecap: square"/>
     </g>
     <g id="line2d_6">
      <g>
       <use xlink:href="#m98b229d225" x="265.990076" y="297.998125" style="stroke: #000000; stroke-width: 0.8"/>
      </g>
     </g>
     <g id="text_3">
      <!-- 0.4 -->
      <g transform="translate(258.038514 312.596562) scale(0.1 -0.1)">
       <defs>
        <path id="DejaVuSans-34" d="M 2419 4116
L 825 1625
L 2419 1625
L 2419 4116
z
M 2253 4666
L 3047 4666
L 3047 1625
L 3713 1625
L 3713 1100
L 3047 1100
L 3047 0
L 2419 0
L 2419 1100
L 313 1100
L 313 1709
L 2253 4666
z
" transform="scale(0.015625)"/>
       </defs>
       <use xlink:href="#DejaVuSans-30"/>
       <use xlink:href="#DejaVuSans-2e" x="63.623047"/>
       <use xlink:href="#DejaVuSans-34" x="95.410156"/>
      </g>
     </g>
    </g>
    <g id="xtick_4">
     <g id="line2d_7">
      <path d="M 362.643828 297.998125
L 362.643828 22.318125
" clip-path="url(#pab55a588a6)" style="fill: none; stroke: #b0b0b0; stroke-opacity: 0.18; stroke-width: 0.8; stroke-linecap: square"/>
     </g>
     <g id="line2d_8">
      <g>
       <use xlink:href="#m98b229d225" x="362.643828" y="297.998125" style="stroke: #000000; stroke-width: 0.8"/>
      </g>
     </g>
     <g id="text_4">
      <!-- 0.6 -->
      <g transform="translate(354.692265 312.596562) scale(0.1 -0.1)">
       <defs>
        <path id="DejaVuSans-36" d="M 2113 2584
Q 1688 2584 1439 2293
Q 1191 2003 1191 1497
Q 1191 994 1439 701
Q 1688 409 2113 409
Q 2538 409 2786 701
Q 3034 994 3034 1497
Q 3034 2003 2786 2293
Q 2538 2584 2113 2584
z
M 3366 4563
L 3366 3988
Q 3128 4100 2886 4159
Q 2644 4219 2406 4219
Q 1781 4219 1451 3797
Q 1122 3375 1075 2522
Q 1259 2794 1537 2939
Q 1816 3084 2150 3084
Q 2853 3084 3261 2657
Q 3669 2231 3669 1497
Q 3669 778 3244 343
Q 2819 -91 2113 -91
Q 1303 -91 875 529
Q 447 1150 447 2328
Q 447 3434 972 4092
Q 1497 4750 2381 4750
Q 2619 4750 2861 4703
Q 3103 4656 3366 4563
z
" transform="scale(0.015625)"/>
       </defs>
       <use xlink:href="#DejaVuSans-30"/>
       <use xlink:href="#DejaVuSans-2e" x="63.623047"/>
       <use xlink:href="#DejaVuSans-36" x="95.410156"/>
      </g>
     </g>
    </g>
    <g id="xtick_5">
     <g id="line2d_9">
      <path d="M 459.297579 297.998125
L 459.297579 22.318125
" clip-path="url(#pab55a588a6)" style="fill: none; stroke: #b0b0b0; stroke-opacity: 0.18; stroke-width: 0.8; stroke-linecap: square"/>
     </g>
     <g id="line2d_10">
      <g>
       <use xlink:href="#m98b229d225" x="459.297579" y="297.998125" style="stroke: #000000; stroke-width: 0.8"/>
      </g>
     </g>
     <g id="text_5">
      <!-- 0.8 -->
      <g transform="translate(451.346017 312.596562) scale(0.1 -0.1)">
       <defs>
        <path id="DejaVuSans-38" d="M 2034 2216
Q 1584 2216 1326 1975
Q 1069 1734 1069 1313
Q 1069 891 1326 650
Q 1584 409 2034 409
Q 2484 409 2743 651
Q 3003 894 3003 1313
Q 3003 1734 2745 1975
Q 2488 2216 2034 2216
z
M 1403 2484
Q 997 2584 770 2862
Q 544 3141 544 3541
Q 544 4100 942 4425
Q 1341 4750 2034 4750
Q 2731 4750 3128 4425
Q 3525 4100 3525 3541
Q 3525 3141 3298 2862
Q 3072 2584 2669 2484
Q 3125 2378 3379 2068
Q 3634 1759 3634 1313
Q 3634 634 3220 271
Q 2806 -91 2034 -91
Q 1263 -91 848 271
Q 434 634 434 1313
Q 434 1759 690 2068
Q 947 2378 1403 2484
z
M 1172 3481
Q 1172 3119 1398 2916
Q 1625 2713 2034 2713
Q 2441 2713 2670 2916
Q 2900 3119 2900 3481
Q 2900 3844 2670 4047
Q 2441 4250 2034 4250
Q 1625 4250 1398 4047
Q 1172 3844 1172 3481
z
" transform="scale(0.015625)"/>
       </defs>
       <use xlink:href="#DejaVuSans-30"/>
       <use xlink:href="#DejaVuSans-2e" x="63.623047"/>
       <use xlink:href="#DejaVuSans-38" x="95.410156"/>
      </g>
     </g>
    </g>
    <g id="text_6">
     <!-- biomass flux (h$^{-1}$) -->
     <g transform="translate(238.202054 326.996562) scale(0.1 -0.1)">
      <defs>
       <path id="DejaVuSans-62" d="M 3116 1747
Q 3116 2381 2855 2742
Q 2594 3103 2138 3103
Q 1681 3103 1420 2742
Q 1159 2381 1159 1747
Q 1159 1113 1420 752
Q 1681 391 2138 391
Q 2594 391 2855 752
Q 3116 1113 3116 1747
z
M 1159 2969
Q 1341 3281 1617 3432
Q 1894 3584 2278 3584
Q 2916 3584 3314 3078
Q 3713 2572 3713 1747
Q 3713 922 3314 415
Q 2916 -91 2278 -91
Q 1894 -91 1617 61
Q 1341 213 1159 525
L 1159 0
L 581 0
L 581 4863
L 1159 4863
L 1159 2969
z
" transform="scale(0.015625)"/>
       <path id="DejaVuSans-69" d="M 603 3500
L 1178 3500
L 1178 0
L 603 0
L 603 3500
z
M 603 4863
L 1178 4863
L 1178 4134
L 603 4134
L 603 4863
z
" transform="scale(0.015625)"/>
       <path id="DejaVuSans-6f" d="M 1959 3097
Q 1497 3097 1228 2736
Q 959 2375 959 1747
Q 959 1119 1226 758
Q 1494 397 1959 397
Q 2419 397 2687 759
Q 2956 1122 2956 1747
Q 2956 2369 2687 2733
Q 2419 3097 1959 3097
z
M 1959 3584
Q 2709 3584 3137 3096
Q 3566 2609 3566 1747
Q 3566 888 3137 398
Q 2709 -91 1959 -91
Q 1206 -91 779 398
Q 353 888 353 1747
Q 353 2609 779 3096
Q 1206 3584 1959 3584
z
" transform="scale(0.015625)"/>
       <path id="DejaVuSans-6d" d="M 3328 2828
Q 3544 3216 3844 3400
Q 4144 3584 4550 3584
Q 5097 3584 5394 3201
Q 5691 2819 5691 2113
L 5691 0
L 5113 0
L 5113 2094
Q 5113 2597 4934 2840
Q 4756 3084 4391 3084
Q 3944 3084 3684 2787
Q 3425 2491 3425 1978
L 3425 0
L 2847 0
L 2847 2094
Q 2847 2600 2669 2842
Q 2491 3084 2119 3084
Q 1678 3084 1418 2786
Q 1159 2488 1159 1978
L 1159 0
L 581 0
L 581 3500
L 1159 3500
L 1159 2956
Q 1356 3278 1631 3431
Q 1906 3584 2284 3584
Q 2666 3584 2933 3390
Q 3200 3197 3328 2828
z
" transform="scale(0.015625)"/>
       <path id="DejaVuSans-61" d="M 2194 1759
Q 1497 1759 1228 1600
Q 959 1441 959 1056
Q 959 750 1161 570
Q 1363 391 1709 391
Q 2188 391 2477 730
Q 2766 1069 2766 1631
L 2766 1759
L 2194 1759
z
M 3341 1997
L 3341 0
L 2766 0
L 2766 531
Q 2569 213 2275 61
Q 1981 -91 1556 -91
Q 1019 -91 701 211
Q 384 513 384 1019
Q 384 1609 779 1909
Q 1175 2209 1959 2209
L 2766 2209
L 2766 2266
Q 2766 2663 2505 2880
Q 2244 3097 1772 3097
Q 1472 3097 1187 3025
Q 903 2953 641 2809
L 641 3341
Q 956 3463 1253 3523
Q 1550 3584 1831 3584
Q 2591 3584 2966 3190
Q 3341 2797 3341 1997
z
" transform="scale(0.015625)"/>
       <path id="DejaVuSans-73" d="M 2834 3397
L 2834 2853
Q 2591 2978 2328 3040
Q 2066 3103 1784 3103
Q 1356 3103 1142 2972
Q 928 2841 928 2578
Q 928 2378 1081 2264
Q 1234 2150 1697 2047
L 1894 2003
Q 2506 1872 2764 1633
Q 3022 1394 3022 966
Q 3022 478 2636 193
Q 2250 -91 1575 -91
Q 1294 -91 989 -36
Q 684 19 347 128
L 347 722
Q 666 556 975 473
Q 1284 391 1588 391
Q 1994 391 2212 530
Q 2431 669 2431 922
Q 2431 1156 2273 1281
Q 2116 1406 1581 1522
L 1381 1569
Q 847 1681 609 1914
Q 372 2147 372 2553
Q 372 3047 722 3315
Q 1072 3584 1716 3584
Q 2034 3584 2315 3537
Q 2597 3491 2834 3397
z
" transform="scale(0.015625)"/>
       <path id="DejaVuSans-20" transform="scale(0.015625)"/>
       <path id="DejaVuSans-66" d="M 2375 4863
L 2375 4384
L 1825 4384
Q 1516 4384 1395 4259
Q 1275 4134 1275 3809
L 1275 3500
L 2222 3500
L 2222 3053
L 1275 3053
L 1275 0
L 697 0
L 697 3053
L 147 3053
L 147 3500
L 697 3500
L 697 3744
Q 697 4328 969 4595
Q 1241 4863 1831 4863
L 2375 4863
z
" transform="scale(0.015625)"/>
       <path id="DejaVuSans-6c" d="M 603 4863
L 1178 4863
L 1178 0
L 603 0
L 603 4863
z
" transform="scale(0.015625)"/>
       <path id="DejaVuSans-75" d="M 544 1381
L 544 3500
L 1119 3500
L 1119 1403
Q 1119 906 1312 657
Q 1506 409 1894 409
Q 2359 409 2629 706
Q 2900 1003 2900 1516
L 2900 3500
L 3475 3500
L 3475 0
L 2900 0
L 2900 538
Q 2691 219 2414 64
Q 2138 -91 1772 -91
Q 1169 -91 856 284
Q 544 659 544 1381
z
M 1991 3584
L 1991 3584
z
" transform="scale(0.015625)"/>
       <path id="DejaVuSans-78" d="M 3513 3500
L 2247 1797
L 3578 0
L 2900 0
L 1881 1375
L 863 0
L 184 0
L 1544 1831
L 300 3500
L 978 3500
L 1906 2253
L 2834 3500
L 3513 3500
z
" transform="scale(0.015625)"/>
       <path id="DejaVuSans-28" d="M 1984 4856
Q 1566 4138 1362 3434
Q 1159 2731 1159 2009
Q 1159 1288 1364 580
Q 1569 -128 1984 -844
L 1484 -844
Q 1016 -109 783 600
Q 550 1309 550 2009
Q 550 2706 781 3412
Q 1013 4119 1484 4856
L 1984 4856
z
" transform="scale(0.015625)"/>
       <path id="DejaVuSans-68" d="M 3513 2113
L 3513 0
L 2938 0
L 2938 2094
Q 2938 2591 2744 2837
Q 2550 3084 2163 3084
Q 1697 3084 1428 2787
Q 1159 2491 1159 1978
L 1159 0
L 581 0
L 581 4863
L 1159 4863
L 1159 2956
Q 1366 3272 1645 3428
Q 1925 3584 2291 3584
Q 2894 3584 3203 3211
Q 3513 2838 3513 2113
z
" transform="scale(0.015625)"/>
       <path id="DejaVuSans-2212" d="M 678 2272
L 4684 2272
L 4684 1741
L 678 1741
L 678 2272
z
" transform="scale(0.015625)"/>
       <path id="DejaVuSans-31" d="M 794 531
L 1825 531
L 1825 4091
L 703 3866
L 703 4441
L 1819 4666
L 2450 4666
L 2450 531
L 3481 531
L 3481 0
L 794 0
L 794 531
z
" transform="scale(0.015625)"/>
       <path id="DejaVuSans-29" d="M 513 4856
L 1013 4856
Q 1481 4119 1714 3412
Q 1947 2706 1947 2009
Q 1947 1309 1714 600
Q 1481 -109 1013 -844
L 513 -844
Q 928 -128 1133 580
Q 1338 1288 1338 2009
Q 1338 2731 1133 3434
Q 928 4138 513 4856
z
" transform="scale(0.015625)"/>
      </defs>
      <use xlink:href="#DejaVuSans-62" transform="translate(0 0.684375)"/>
      <use xlink:href="#DejaVuSans-69" transform="translate(63.476562 0.684375)"/>
      <use xlink:href="#DejaVuSans-6f" transform="translate(91.259766 0.684375)"/>
      <use xlink:href="#DejaVuSans-6d" transform="translate(152.441406 0.684375)"/>
      <use xlink:href="#DejaVuSans-61" transform="translate(249.853516 0.684375)"/>
      <use xlink:href="#DejaVuSans-73" transform="translate(311.132812 0.684375)"/>
      <use xlink:href="#DejaVuSans-73" transform="translate(363.232422 0.684375)"/>
      <use xlink:href="#DejaVuSans-20" transform="translate(415.332031 0.684375)"/>
      <use xlink:href="#DejaVuSans-66" transform="translate(447.119141 0.684375)"/>
      <use xlink:href="#DejaVuSans-6c" transform="translate(482.324219 0.684375)"/>
      <use xlink:href="#DejaVuSans-75" transform="translate(510.107422 0.684375)"/>
      <use xlink:href="#DejaVuSans-78" transform="translate(573.486328 0.684375)"/>
      <use xlink:href="#DejaVuSans-20" transform="translate(632.666016 0.684375)"/>
      <use xlink:href="#DejaVuSans-28" transform="translate(664.453125 0.684375)"/>
      <use xlink:href="#DejaVuSans-68" transform="translate(703.466797 0.684375)"/>
      <use xlink:href="#DejaVuSans-2212" transform="translate(767.802734 38.965625) scale(0.7)"/>
      <use xlink:href="#DejaVuSans-31" transform="translate(826.455078 38.965625) scale(0.7)"/>
      <use xlink:href="#DejaVuSans-29" transform="translate(873.725586 0.684375)"/>
     </g>
    </g>
   </g>
   <g id="matplotlib.axis_2">
    <g id="ytick_1">
     <g id="line2d_11">
      <path d="M 51.565625 285.467216
L 516.138482 285.467216
" clip-path="url(#pab55a588a6)" style="fill: none; stroke: #b0b0b0; stroke-opacity: 0.18; stroke-width: 0.8; stroke-linecap: square"/>
     </g>
     <g id="line2d_12">
      <defs>
       <path id="mc9740bd8ad" d="M 0 0
L -3.5 0
" style="stroke: #000000; stroke-width: 0.8"/>
      </defs>
      <g>
       <use xlink:href="#mc9740bd8ad" x="51.565625" y="285.467216" style="stroke: #000000; stroke-width: 0.8"/>
      </g>
     </g>
     <g id="text_7">
      <!-- 0.0 -->
      <g transform="translate(28.6625 289.266435) scale(0.1 -0.1)">
       <use xlink:href="#DejaVuSans-30"/>
       <use xlink:href="#DejaVuSans-2e" x="63.623047"/>
       <use xlink:href="#DejaVuSans-30" x="95.410156"/>
      </g>
     </g>
    </g>
    <g id="ytick_2">
     <g id="line2d_13">
      <path d="M 51.565625 254.139943
L 516.138482 254.139943
" clip-path="url(#pab55a588a6)" style="fill: none; stroke: #b0b0b0; stroke-opacity: 0.18; stroke-width: 0.8; stroke-linecap: square"/>
     </g>
     <g id="line2d_14">
      <g>
       <use xlink:href="#mc9740bd8ad" x="51.565625" y="254.139943" style="stroke: #000000; stroke-width: 0.8"/>
      </g>
     </g>
     <g id="text_8">
      <!-- 2.5 -->
      <g transform="translate(28.6625 257.939162) scale(0.1 -0.1)">
       <defs>
        <path id="DejaVuSans-35" d="M 691 4666
L 3169 4666
L 3169 4134
L 1269 4134
L 1269 2991
Q 1406 3038 1543 3061
Q 1681 3084 1819 3084
Q 2600 3084 3056 2656
Q 3513 2228 3513 1497
Q 3513 744 3044 326
Q 2575 -91 1722 -91
Q 1428 -91 1123 -41
Q 819 9 494 109
L 494 744
Q 775 591 1075 516
Q 1375 441 1709 441
Q 2250 441 2565 725
Q 2881 1009 2881 1497
Q 2881 1984 2565 2268
Q 2250 2553 1709 2553
Q 1456 2553 1204 2497
Q 953 2441 691 2322
L 691 4666
z
" transform="scale(0.015625)"/>
       </defs>
       <use xlink:href="#DejaVuSans-32"/>
       <use xlink:href="#DejaVuSans-2e" x="63.623047"/>
       <use xlink:href="#DejaVuSans-35" x="95.410156"/>
      </g>
     </g>
    </g>
    <g id="ytick_3">
     <g id="line2d_15">
      <path d="M 51.565625 222.81267
L 516.138482 222.81267
" clip-path="url(#pab55a588a6)" style="fill: none; stroke: #b0b0b0; stroke-opacity: 0.18; stroke-width: 0.8; stroke-linecap: square"/>
     </g>
     <g id="line2d_16">
      <g>
       <use xlink:href="#mc9740bd8ad" x="51.565625" y="222.81267" style="stroke: #000000; stroke-width: 0.8"/>
      </g>
     </g>
     <g id="text_9">
      <!-- 5.0 -->
      <g transform="translate(28.6625 226.611889) scale(0.1 -0.1)">
       <use xlink:href="#DejaVuSans-35"/>
       <use xlink:href="#DejaVuSans-2e" x="63.623047"/>
       <use xlink:href="#DejaVuSans-30" x="95.410156"/>
      </g>
     </g>
    </g>
    <g id="ytick_4">
     <g id="line2d_17">
      <path d="M 51.565625 191.485398
L 516.138482 191.485398
" clip-path="url(#pab55a588a6)" style="fill: none; stroke: #b0b0b0; stroke-opacity: 0.18; stroke-width: 0.8; stroke-linecap: square"/>
     </g>
     <g id="line2d_18">
      <g>
       <use xlink:href="#mc9740bd8ad" x="51.565625" y="191.485398" style="stroke: #000000; stroke-width: 0.8"/>
      </g>
     </g>
     <g id="text_10">
      <!-- 7.5 -->
      <g transform="translate(28.6625 195.284616) scale(0.1 -0.1)">
       <defs>
        <path id="DejaVuSans-37" d="M 525 4666
L 3525 4666
L 3525 4397
L 1831 0
L 1172 0
L 2766 4134
L 525 4134
L 525 4666
z
" transform="scale(0.015625)"/>
       </defs>
       <use xlink:href="#DejaVuSans-37"/>
       <use xlink:href="#DejaVuSans-2e" x="63.623047"/>
       <use xlink:href="#DejaVuSans-35" x="95.410156"/>
      </g>
     </g>
    </g>
    <g id="ytick_5">
     <g id="line2d_19">
      <path d="M 51.565625 160.158125
L 516.138482 160.158125
" clip-path="url(#pab55a588a6)" style="fill: none; stroke: #b0b0b0; stroke-opacity: 0.18; stroke-width: 0.8; stroke-linecap: square"/>
     </g>
     <g id="line2d_20">
      <g>
       <use xlink:href="#mc9740bd8ad" x="51.565625" y="160.158125" style="stroke: #000000; stroke-width: 0.8"/>
      </g>
     </g>
     <g id="text_11">
      <!-- 10.0 -->
      <g transform="translate(22.3 163.957344) scale(0.1 -0.1)">
       <use xlink:href="#DejaVuSans-31"/>
       <use xlink:href="#DejaVuSans-30" x="63.623047"/>
       <use xlink:href="#DejaVuSans-2e" x="127.246094"/>
       <use xlink:href="#DejaVuSans-30" x="159.033203"/>
      </g>
     </g>
    </g>
    <g id="ytick_6">
     <g id="line2d_21">
      <path d="M 51.565625 128.830852
L 516.138482 128.830852
" clip-path="url(#pab55a588a6)" style="fill: none; stroke: #b0b0b0; stroke-opacity: 0.18; stroke-width: 0.8; stroke-linecap: square"/>
     </g>
     <g id="line2d_22">
      <g>
       <use xlink:href="#mc9740bd8ad" x="51.565625" y="128.830852" style="stroke: #000000; stroke-width: 0.8"/>
      </g>
     </g>
     <g id="text_12">
      <!-- 12.5 -->
      <g transform="translate(22.3 132.630071) scale(0.1 -0.1)">
       <use xlink:href="#DejaVuSans-31"/>
       <use xlink:href="#DejaVuSans-32" x="63.623047"/>
       <use xlink:href="#DejaVuSans-2e" x="127.246094"/>
       <use xlink:href="#DejaVuSans-35" x="159.033203"/>
      </g>
     </g>
    </g>
    <g id="ytick_7">
     <g id="line2d_23">
      <path d="M 51.565625 97.50358
L 516.138482 97.50358
" clip-path="url(#pab55a588a6)" style="fill: none; stroke: #b0b0b0; stroke-opacity: 0.18; stroke-width: 0.8; stroke-linecap: square"/>
     </g>
     <g id="line2d_24">
      <g>
       <use xlink:href="#mc9740bd8ad" x="51.565625" y="97.50358" style="stroke: #000000; stroke-width: 0.8"/>
      </g>
     </g>
     <g id="text_13">
      <!-- 15.0 -->
      <g transform="translate(22.3 101.302798) scale(0.1 -0.1)">
       <use xlink:href="#DejaVuSans-31"/>
       <use xlink:href="#DejaVuSans-35" x="63.623047"/>
       <use xlink:href="#DejaVuSans-2e" x="127.246094"/>
       <use xlink:href="#DejaVuSans-30" x="159.033203"/>
      </g>
     </g>
    </g>
    <g id="ytick_8">
     <g id="line2d_25">
      <path d="M 51.565625 66.176307
L 516.138482 66.176307
" clip-path="url(#pab55a588a6)" style="fill: none; stroke: #b0b0b0; stroke-opacity: 0.18; stroke-width: 0.8; stroke-linecap: square"/>
     </g>
     <g id="line2d_26">
      <g>
       <use xlink:href="#mc9740bd8ad" x="51.565625" y="66.176307" style="stroke: #000000; stroke-width: 0.8"/>
      </g>
     </g>
     <g id="text_14">
      <!-- 17.5 -->
      <g transform="translate(22.3 69.975526) scale(0.1 -0.1)">
       <use xlink:href="#DejaVuSans-31"/>
       <use xlink:href="#DejaVuSans-37" x="63.623047"/>
       <use xlink:href="#DejaVuSans-2e" x="127.246094"/>
       <use xlink:href="#DejaVuSans-35" x="159.033203"/>
      </g>
     </g>
    </g>
    <g id="ytick_9">
     <g id="line2d_27">
      <path d="M 51.565625 34.849034
L 516.138482 34.849034
" clip-path="url(#pab55a588a6)" style="fill: none; stroke: #b0b0b0; stroke-opacity: 0.18; stroke-width: 0.8; stroke-linecap: square"/>
     </g>
     <g id="line2d_28">
      <g>
       <use xlink:href="#mc9740bd8ad" x="51.565625" y="34.849034" style="stroke: #000000; stroke-width: 0.8"/>
      </g>
     </g>
     <g id="text_15">
      <!-- 20.0 -->
      <g transform="translate(22.3 38.648253) scale(0.1 -0.1)">
       <use xlink:href="#DejaVuSans-32"/>
       <use xlink:href="#DejaVuSans-30" x="63.623047"/>
       <use xlink:href="#DejaVuSans-2e" x="127.246094"/>
       <use xlink:href="#DejaVuSans-30" x="159.033203"/>
      </g>
     </g>
    </g>
    <g id="text_16">
     <!-- acetate secretion flux (mmol gDW$^{-1}$ h$^{-1}$) -->
     <g transform="translate(16.2 263.408125) rotate(-90) scale(0.1 -0.1)">
      <defs>
       <path id="DejaVuSans-63" d="M 3122 3366
L 3122 2828
Q 2878 2963 2633 3030
Q 2388 3097 2138 3097
Q 1578 3097 1268 2742
Q 959 2388 959 1747
Q 959 1106 1268 751
Q 1578 397 2138 397
Q 2388 397 2633 464
Q 2878 531 3122 666
L 3122 134
Q 2881 22 2623 -34
Q 2366 -91 2075 -91
Q 1284 -91 818 406
Q 353 903 353 1747
Q 353 2603 823 3093
Q 1294 3584 2113 3584
Q 2378 3584 2631 3529
Q 2884 3475 3122 3366
z
" transform="scale(0.015625)"/>
       <path id="DejaVuSans-65" d="M 3597 1894
L 3597 1613
L 953 1613
Q 991 1019 1311 708
Q 1631 397 2203 397
Q 2534 397 2845 478
Q 3156 559 3463 722
L 3463 178
Q 3153 47 2828 -22
Q 2503 -91 2169 -91
Q 1331 -91 842 396
Q 353 884 353 1716
Q 353 2575 817 3079
Q 1281 3584 2069 3584
Q 2775 3584 3186 3129
Q 3597 2675 3597 1894
z
M 3022 2063
Q 3016 2534 2758 2815
Q 2500 3097 2075 3097
Q 1594 3097 1305 2825
Q 1016 2553 972 2059
L 3022 2063
z
" transform="scale(0.015625)"/>
       <path id="DejaVuSans-74" d="M 1172 4494
L 1172 3500
L 2356 3500
L 2356 3053
L 1172 3053
L 1172 1153
Q 1172 725 1289 603
Q 1406 481 1766 481
L 2356 481
L 2356 0
L 1766 0
Q 1100 0 847 248
Q 594 497 594 1153
L 594 3053
L 172 3053
L 172 3500
L 594 3500
L 594 4494
L 1172 4494
z
" transform="scale(0.015625)"/>
       <path id="DejaVuSans-72" d="M 2631 2963
Q 2534 3019 2420 3045
Q 2306 3072 2169 3072
Q 1681 3072 1420 2755
Q 1159 2438 1159 1844
L 1159 0
L 581 0
L 581 3500
L 1159 3500
L 1159 2956
Q 1341 3275 1631 3429
Q 1922 3584 2338 3584
Q 2397 3584 2469 3576
Q 2541 3569 2628 3553
L 2631 2963
z
" transform="scale(0.015625)"/>
       <path id="DejaVuSans-6e" d="M 3513 2113
L 3513 0
L 2938 0
L 2938 2094
Q 2938 2591 2744 2837
Q 2550 3084 2163 3084
Q 1697 3084 1428 2787
Q 1159 2491 1159 1978
L 1159 0
L 581 0
L 581 3500
L 1159 3500
L 1159 2956
Q 1366 3272 1645 3428
Q 1925 3584 2291 3584
Q 2894 3584 3203 3211
Q 3513 2838 3513 2113
z
" transform="scale(0.015625)"/>
       <path id="DejaVuSans-67" d="M 2906 1791
Q 2906 2416 2648 2759
Q 2391 3103 1925 3103
Q 1463 3103 1205 2759
Q 947 2416 947 1791
Q 947 1169 1205 825
Q 1463 481 1925 481
Q 2391 481 2648 825
Q 2906 1169 2906 1791
z
M 3481 434
Q 3481 -459 3084 -895
Q 2688 -1331 1869 -1331
Q 1566 -1331 1297 -1286
Q 1028 -1241 775 -1147
L 775 -588
Q 1028 -725 1275 -790
Q 1522 -856 1778 -856
Q 2344 -856 2625 -561
Q 2906 -266 2906 331
L 2906 616
Q 2728 306 2450 153
Q 2172 0 1784 0
Q 1141 0 747 490
Q 353 981 353 1791
Q 353 2603 747 3093
Q 1141 3584 1784 3584
Q 2172 3584 2450 3431
Q 2728 3278 2906 2969
L 2906 3500
L 3481 3500
L 3481 434
z
" transform="scale(0.015625)"/>
       <path id="DejaVuSans-44" d="M 1259 4147
L 1259 519
L 2022 519
Q 2988 519 3436 956
Q 3884 1394 3884 2338
Q 3884 3275 3436 3711
Q 2988 4147 2022 4147
L 1259 4147
z
M 628 4666
L 1925 4666
Q 3281 4666 3915 4102
Q 4550 3538 4550 2338
Q 4550 1131 3912 565
Q 3275 0 1925 0
L 628 0
L 628 4666
z
" transform="scale(0.015625)"/>
       <path id="DejaVuSans-57" d="M 213 4666
L 850 4666
L 1831 722
L 2809 4666
L 3519 4666
L 4500 722
L 5478 4666
L 6119 4666
L 4947 0
L 4153 0
L 3169 4050
L 2175 0
L 1381 0
L 213 4666
z
" transform="scale(0.015625)"/>
      </defs>
      <use xlink:href="#DejaVuSans-61" transform="translate(0 0.684375)"/>
      <use xlink:href="#DejaVuSans-63" transform="translate(61.279297 0.684375)"/>
      <use xlink:href="#DejaVuSans-65" transform="translate(116.259766 0.684375)"/>
      <use xlink:href="#DejaVuSans-74" transform="translate(177.783203 0.684375)"/>
      <use xlink:href="#DejaVuSans-61" transform="translate(216.992188 0.684375)"/>
      <use xlink:href="#DejaVuSans-74" transform="translate(278.271484 0.684375)"/>
      <use xlink:href="#DejaVuSans-65" transform="translate(317.480469 0.684375)"/>
      <use xlink:href="#DejaVuSans-20" transform="translate(379.003906 0.684375)"/>
      <use xlink:href="#DejaVuSans-73" transform="translate(410.791016 0.684375)"/>
      <use xlink:href="#DejaVuSans-65" transform="translate(462.890625 0.684375)"/>
      <use xlink:href="#DejaVuSans-63" transform="translate(524.414062 0.684375)"/>
      <use xlink:href="#DejaVuSans-72" transform="translate(579.394531 0.684375)"/>
      <use xlink:href="#DejaVuSans-65" transform="translate(620.507812 0.684375)"/>
      <use xlink:href="#DejaVuSans-74" transform="translate(682.03125 0.684375)"/>
      <use xlink:href="#DejaVuSans-69" transform="translate(721.240234 0.684375)"/>
      <use xlink:href="#DejaVuSans-6f" transform="translate(749.023438 0.684375)"/>
      <use xlink:href="#DejaVuSans-6e" transform="translate(810.205078 0.684375)"/>
      <use xlink:href="#DejaVuSans-20" transform="translate(873.583984 0.684375)"/>
      <use xlink:href="#DejaVuSans-66" transform="translate(905.371094 0.684375)"/>
      <use xlink:href="#DejaVuSans-6c" transform="translate(940.576172 0.684375)"/>
      <use xlink:href="#DejaVuSans-75" transform="translate(968.359375 0.684375)"/>
      <use xlink:href="#DejaVuSans-78" transform="translate(1031.738281 0.684375)"/>
      <use xlink:href="#DejaVuSans-20" transform="translate(1090.917969 0.684375)"/>
      <use xlink:href="#DejaVuSans-28" transform="translate(1122.705078 0.684375)"/>
      <use xlink:href="#DejaVuSans-6d" transform="translate(1161.71875 0.684375)"/>
      <use xlink:href="#DejaVuSans-6d" transform="translate(1259.130859 0.684375)"/>
      <use xlink:href="#DejaVuSans-6f" transform="translate(1356.542969 0.684375)"/>
      <use xlink:href="#DejaVuSans-6c" transform="translate(1417.724609 0.684375)"/>
      <use xlink:href="#DejaVuSans-20" transform="translate(1445.507812 0.684375)"/>
      <use xlink:href="#DejaVuSans-67" transform="translate(1477.294922 0.684375)"/>
      <use xlink:href="#DejaVuSans-44" transform="translate(1540.771484 0.684375)"/>
      <use xlink:href="#DejaVuSans-57" transform="translate(1617.773438 0.684375)"/>
      <use xlink:href="#DejaVuSans-2212" transform="translate(1717.607422 38.965625) scale(0.7)"/>
      <use xlink:href="#DejaVuSans-31" transform="translate(1776.259766 38.965625) scale(0.7)"/>
      <use xlink:href="#DejaVuSans-20" transform="translate(1823.530273 0.684375)"/>
      <use xlink:href="#DejaVuSans-68" transform="translate(1855.317383 0.684375)"/>
      <use xlink:href="#DejaVuSans-2212" transform="translate(1919.65332 38.965625) scale(0.7)"/>
      <use xlink:href="#DejaVuSans-31" transform="translate(1978.305664 38.965625) scale(0.7)"/>
      <use xlink:href="#DejaVuSans-29" transform="translate(2025.576172 0.684375)"/>
     </g>
    </g>
   </g>
   <g id="line2d_29">
    <path d="M 72.682573 34.849034
L 87.245986 40.588318
L 101.809398 46.327603
L 116.37281 52.066887
L 130.936223 57.806171
L 145.499635 63.545455
L 160.063048 69.28474
L 174.62646 75.024024
L 189.189873 80.763308
L 203.753285 86.502593
L 218.316698 92.241877
L 232.88011 97.981161
L 247.443522 103.720445
L 262.006935 109.45973
L 276.570347 115.199014
L 291.13376 120.938298
L 305.697172 126.677582
L 320.260585 132.416867
L 334.823997 138.156151
L 349.38741 143.895435
L 363.950822 149.63472
L 378.514234 159.738998
L 393.077647 173.802389
L 407.641059 187.86578
L 422.204472 203.075288
L 436.767884 219.553674
L 451.331297 236.032059
L 465.894709 252.510445
L 480.458122 268.98883
L 495.021534 285.467216
" clip-path="url(#pab55a588a6)" style="fill: none; stroke: #2563eb; stroke-width: 2.2; stroke-linecap: square"/>
   </g>
   <g id="line2d_30">
    <path d="M 72.682573 285.467216
L 87.245986 285.467216
L 101.809398 285.467216
L 116.37281 285.467216
L 130.936223 285.467216
L 145.499635 285.467216
L 160.063048 285.467216
L 174.62646 285.467216
L 189.189873 285.467216
L 203.753285 285.467216
L 218.316698 285.467216
L 232.88011 285.467216
L 247.443522 285.467216
L 262.006935 285.467216
L 276.570347 285.467216
L 291.13376 285.467216
L 305.697172 285.467216
L 320.260585 285.467216
L 334.823997 285.467216
L 349.38741 285.467216
L 363.950822 285.467216
L 378.514234 285.467216
L 393.077647 285.467216
L 407.641059 285.467216
L 422.204472 285.467216
L 436.767884 285.467216
L 451.331297 285.467216
L 465.894709 285.467216
L 480.458122 285.467216
L 495.021534 285.467216
" clip-path="url(#pab55a588a6)" style="fill: none; stroke-dasharray: 8.14,3.52; stroke-dashoffset: 0; stroke: #059669; stroke-width: 2.2"/>
   </g>
   <g id="patch_3">
    <path d="M 51.565625 297.998125
L 51.565625 22.318125
" style="fill: none; stroke: #000000; stroke-width: 0.8; stroke-linejoin: miter; stroke-linecap: square"/>
   </g>
   <g id="patch_4">
    <path d="M 516.138482 297.998125
L 516.138482 22.318125
" style="fill: none; stroke: #000000; stroke-width: 0.8; stroke-linejoin: miter; stroke-linecap: square"/>
   </g>
   <g id="patch_5">
    <path d="M 51.565625 297.998125
L 516.138482 297.998125
" style="fill: none; stroke: #000000; stroke-width: 0.8; stroke-linejoin: miter; stroke-linecap: square"/>
   </g>
   <g id="patch_6">
    <path d="M 51.565625 22.318125
L 516.138482 22.318125
" style="fill: none; stroke: #000000; stroke-width: 0.8; stroke-linejoin: miter; stroke-linecap: square"/>
   </g>
   <g id="patch_7">
    <path d="M 381.283343 203.004414
Q 437.341957 243.648197 492.495408 283.635717
" style="fill: none; stroke: #ea580c; stroke-linecap: round"/>
    <path d="M 490.430962 279.668594
L 492.495408 283.635717
L 488.083042 282.907001
" style="fill: none; stroke: #ea580c; stroke-linecap: round"/>
   </g>
   <g id="text_17">
    <!-- minimum = 0 at max growth -->
    <g style="fill: #ea580c" transform="translate(290.153514 186.55304) scale(0.1 -0.1)">
     <defs>
      <path id="DejaVuSans-3d" d="M 678 2906
L 4684 2906
L 4684 2381
L 678 2381
L 678 2906
z
M 678 1631
L 4684 1631
L 4684 1100
L 678 1100
L 678 1631
z
" transform="scale(0.015625)"/>
      <path id="DejaVuSans-77" d="M 269 3500
L 844 3500
L 1563 769
L 2278 3500
L 2956 3500
L 3675 769
L 4391 3500
L 4966 3500
L 4050 0
L 3372 0
L 2619 2869
L 1863 0
L 1184 0
L 269 3500
z
" transform="scale(0.015625)"/>
     </defs>
     <use xlink:href="#DejaVuSans-6d"/>
     <use xlink:href="#DejaVuSans-69" x="97.412109"/>
     <use xlink:href="#DejaVuSans-6e" x="125.195312"/>
     <use xlink:href="#DejaVuSans-69" x="188.574219"/>
     <use xlink:href="#DejaVuSans-6d" x="216.357422"/>
     <use xlink:href="#DejaVuSans-75" x="313.769531"/>
     <use xlink:href="#DejaVuSans-6d" x="377.148438"/>
     <use xlink:href="#DejaVuSans-20" x="474.560547"/>
     <use xlink:href="#DejaVuSans-3d" x="506.347656"/>
     <use xlink:href="#DejaVuSans-20" x="590.136719"/>
     <use xlink:href="#DejaVuSans-30" x="621.923828"/>
     <use xlink:href="#DejaVuSans-20" x="685.546875"/>
     <use xlink:href="#DejaVuSans-61" x="717.333984"/>
     <use xlink:href="#DejaVuSans-74" x="778.613281"/>
     <use xlink:href="#DejaVuSans-20" x="817.822266"/>
     <use xlink:href="#DejaVuSans-6d" x="849.609375"/>
     <use xlink:href="#DejaVuSans-61" x="947.021484"/>
     <use xlink:href="#DejaVuSans-78" x="1008.300781"/>
     <use xlink:href="#DejaVuSans-20" x="1067.480469"/>
     <use xlink:href="#DejaVuSans-67" x="1099.267578"/>
     <use xlink:href="#DejaVuSans-72" x="1162.744141"/>
     <use xlink:href="#DejaVuSans-6f" x="1201.607422"/>
     <use xlink:href="#DejaVuSans-77" x="1262.789062"/>
     <use xlink:href="#DejaVuSans-74" x="1344.576172"/>
     <use xlink:href="#DejaVuSans-68" x="1383.785156"/>
    </g>
    <!-- (not growth-coupled) -->
    <g style="fill: #ea580c" transform="translate(290.153514 197.750852) scale(0.1 -0.1)">
     <defs>
      <path id="DejaVuSans-2d" d="M 313 2009
L 1997 2009
L 1997 1497
L 313 1497
L 313 2009
z
" transform="scale(0.015625)"/>
      <path id="DejaVuSans-70" d="M 1159 525
L 1159 -1331
L 581 -1331
L 581 3500
L 1159 3500
L 1159 2969
Q 1341 3281 1617 3432
Q 1894 3584 2278 3584
Q 2916 3584 3314 3078
Q 3713 2572 3713 1747
Q 3713 922 3314 415
Q 2916 -91 2278 -91
Q 1894 -91 1617 61
Q 1341 213 1159 525
z
M 3116 1747
Q 3116 2381 2855 2742
Q 2594 3103 2138 3103
Q 1681 3103 1420 2742
Q 1159 2381 1159 1747
Q 1159 1113 1420 752
Q 1681 391 2138 391
Q 2594 391 2855 752
Q 3116 1113 3116 1747
z
" transform="scale(0.015625)"/>
      <path id="DejaVuSans-64" d="M 2906 2969
L 2906 4863
L 3481 4863
L 3481 0
L 2906 0
L 2906 525
Q 2725 213 2448 61
Q 2172 -91 1784 -91
Q 1150 -91 751 415
Q 353 922 353 1747
Q 353 2572 751 3078
Q 1150 3584 1784 3584
Q 2172 3584 2448 3432
Q 2725 3281 2906 2969
z
M 947 1747
Q 947 1113 1208 752
Q 1469 391 1925 391
Q 2381 391 2643 752
Q 2906 1113 2906 1747
Q 2906 2381 2643 2742
Q 2381 3103 1925 3103
Q 1469 3103 1208 2742
Q 947 2381 947 1747
z
" transform="scale(0.015625)"/>
     </defs>
     <use xlink:href="#DejaVuSans-28"/>
     <use xlink:href="#DejaVuSans-6e" x="39.013672"/>
     <use xlink:href="#DejaVuSans-6f" x="102.392578"/>
     <use xlink:href="#DejaVuSans-74" x="163.574219"/>
     <use xlink:href="#DejaVuSans-20" x="202.783203"/>
     <use xlink:href="#DejaVuSans-67" x="234.570312"/>
     <use xlink:href="#DejaVuSans-72" x="298.046875"/>
     <use xlink:href="#DejaVuSans-6f" x="336.910156"/>
     <use xlink:href="#DejaVuSans-77" x="398.091797"/>
     <use xlink:href="#DejaVuSans-74" x="479.878906"/>
     <use xlink:href="#DejaVuSans-68" x="519.087891"/>
     <use xlink:href="#DejaVuSans-2d" x="582.466797"/>
     <use xlink:href="#DejaVuSans-63" x="618.550781"/>
     <use xlink:href="#DejaVuSans-6f" x="673.53125"/>
     <use xlink:href="#DejaVuSans-75" x="734.712891"/>
     <use xlink:href="#DejaVuSans-70" x="798.091797"/>
     <use xlink:href="#DejaVuSans-6c" x="861.568359"/>
     <use xlink:href="#DejaVuSans-65" x="889.351562"/>
     <use xlink:href="#DejaVuSans-64" x="950.875"/>
     <use xlink:href="#DejaVuSans-29" x="1014.351562"/>
    </g>
   </g>
   <g id="text_18">
    <!-- E. coli core acetate production envelope -->
    <g transform="translate(162.788929 16.318125) scale(0.12 -0.12)">
     <defs>
      <path id="DejaVuSans-45" d="M 628 4666
L 3578 4666
L 3578 4134
L 1259 4134
L 1259 2753
L 3481 2753
L 3481 2222
L 1259 2222
L 1259 531
L 3634 531
L 3634 0
L 628 0
L 628 4666
z
" transform="scale(0.015625)"/>
      <path id="DejaVuSans-76" d="M 191 3500
L 800 3500
L 1894 563
L 2988 3500
L 3597 3500
L 2284 0
L 1503 0
L 191 3500
z
" transform="scale(0.015625)"/>
     </defs>
     <use xlink:href="#DejaVuSans-45"/>
     <use xlink:href="#DejaVuSans-2e" x="63.183594"/>
     <use xlink:href="#DejaVuSans-20" x="94.970703"/>
     <use xlink:href="#DejaVuSans-63" x="126.757812"/>
     <use xlink:href="#DejaVuSans-6f" x="181.738281"/>
     <use xlink:href="#DejaVuSans-6c" x="242.919922"/>
     <use xlink:href="#DejaVuSans-69" x="270.703125"/>
     <use xlink:href="#DejaVuSans-20" x="298.486328"/>
     <use xlink:href="#DejaVuSans-63" x="330.273438"/>
     <use xlink:href="#DejaVuSans-6f" x="385.253906"/>
     <use xlink:href="#DejaVuSans-72" x="446.435547"/>
     <use xlink:href="#DejaVuSans-65" x="485.298828"/>
     <use xlink:href="#DejaVuSans-20" x="546.822266"/>
     <use xlink:href="#DejaVuSans-61" x="578.609375"/>
     <use xlink:href="#DejaVuSans-63" x="639.888672"/>
     <use xlink:href="#DejaVuSans-65" x="694.869141"/>
     <use xlink:href="#DejaVuSans-74" x="756.392578"/>
     <use xlink:href="#DejaVuSans-61" x="795.601562"/>
     <use xlink:href="#DejaVuSans-74" x="856.880859"/>
     <use xlink:href="#DejaVuSans-65" x="896.089844"/>
     <use xlink:href="#DejaVuSans-20" x="957.613281"/>
     <use xlink:href="#DejaVuSans-70" x="989.400391"/>
     <use xlink:href="#DejaVuSans-72" x="1052.876953"/>
     <use xlink:href="#DejaVuSans-6f" x="1091.740234"/>
     <use xlink:href="#DejaVuSans-64" x="1152.921875"/>
     <use xlink:href="#DejaVuSans-75" x="1216.398438"/>
     <use xlink:href="#DejaVuSans-63" x="1279.777344"/>
     <use xlink:href="#DejaVuSans-74" x="1334.757812"/>
     <use xlink:href="#DejaVuSans-69" x="1373.966797"/>
     <use xlink:href="#DejaVuSans-6f" x="1401.75"/>
     <use xlink:href="#DejaVuSans-6e" x="1462.931641"/>
     <use xlink:href="#DejaVuSans-20" x="1526.310547"/>
     <use xlink:href="#DejaVuSans-65" x="1558.097656"/>
     <use xlink:href="#DejaVuSans-6e" x="1619.621094"/>
     <use xlink:href="#DejaVuSans-76" x="1683"/>
     <use xlink:href="#DejaVuSans-65" x="1742.179688"/>
     <use xlink:href="#DejaVuSans-6c" x="1803.703125"/>
     <use xlink:href="#DejaVuSans-6f" x="1831.486328"/>
     <use xlink:href="#DejaVuSans-70" x="1892.667969"/>
     <use xlink:href="#DejaVuSans-65" x="1956.144531"/>
    </g>
   </g>
   <g id="PathCollection_1">
    <defs>
     <path id="mc635942178" d="M 0 4.1833
C 1.109424 4.1833 2.173559 3.742521 2.95804 2.95804
C 3.742521 2.173559 4.1833 1.109424 4.1833 0
C 4.1833 -1.109424 3.742521 -2.173559 2.95804 -2.95804
C 2.173559 -3.742521 1.109424 -4.1833 0 -4.1833
C -1.109424 -4.1833 -2.173559 -3.742521 -2.95804 -2.95804
C -3.742521 -2.173559 -4.1833 -1.109424 -4.1833 0
C -4.1833 1.109424 -3.742521 2.173559 -2.95804 2.95804
C -2.173559 3.742521 -1.109424 4.1833 0 4.1833
z
" style="stroke: #ea580c"/>
    </defs>
    <g clip-path="url(#pab55a588a6)">
     <use xlink:href="#mc635942178" x="495.021534" y="285.467216" style="fill: #ea580c; stroke: #ea580c"/>
    </g>
   </g>
   <g id="legend_1">
    <g id="patch_8">
     <path d="M 395.014732 63.945625
L 510.538482 63.945625
Q 512.138482 63.945625 512.138482 62.345625
L 512.138482 27.918125
Q 512.138482 26.318125 510.538482 26.318125
L 395.014732 26.318125
Q 393.414732 26.318125 393.414732 27.918125
L 393.414732 62.345625
Q 393.414732 63.945625 395.014732 63.945625
z
" style="fill: #ffffff; opacity: 0.8; stroke: #cccccc; stroke-linejoin: miter"/>
    </g>
    <g id="patch_9">
     <path d="M 396.614732 35.596875
L 412.614732 35.596875
L 412.614732 29.996875
L 396.614732 29.996875
z
" style="fill: #dbeafe; fill-opacity: 0.9; stroke: #dbeafe; stroke-opacity: 0.9; stroke-linejoin: miter"/>
    </g>
    <g id="text_19">
     <!-- feasible acetate range -->
     <g transform="translate(419.014732 35.596875) scale(0.08 -0.08)">
      <use xlink:href="#DejaVuSans-66"/>
      <use xlink:href="#DejaVuSans-65" x="35.205078"/>
      <use xlink:href="#DejaVuSans-61" x="96.728516"/>
      <use xlink:href="#DejaVuSans-73" x="158.007812"/>
      <use xlink:href="#DejaVuSans-69" x="210.107422"/>
      <use xlink:href="#DejaVuSans-62" x="237.890625"/>
      <use xlink:href="#DejaVuSans-6c" x="301.367188"/>
      <use xlink:href="#DejaVuSans-65" x="329.150391"/>
      <use xlink:href="#DejaVuSans-20" x="390.673828"/>
      <use xlink:href="#DejaVuSans-61" x="422.460938"/>
      <use xlink:href="#DejaVuSans-63" x="483.740234"/>
      <use xlink:href="#DejaVuSans-65" x="538.720703"/>
      <use xlink:href="#DejaVuSans-74" x="600.244141"/>
      <use xlink:href="#DejaVuSans-61" x="639.453125"/>
      <use xlink:href="#DejaVuSans-74" x="700.732422"/>
      <use xlink:href="#DejaVuSans-65" x="739.941406"/>
      <use xlink:href="#DejaVuSans-20" x="801.464844"/>
      <use xlink:href="#DejaVuSans-72" x="833.251953"/>
      <use xlink:href="#DejaVuSans-61" x="874.365234"/>
      <use xlink:href="#DejaVuSans-6e" x="935.644531"/>
      <use xlink:href="#DejaVuSans-67" x="999.023438"/>
      <use xlink:href="#DejaVuSans-65" x="1062.5"/>
     </g>
    </g>
    <g id="line2d_31">
     <path d="M 396.614732 44.539375
L 404.614732 44.539375
L 412.614732 44.539375
" style="fill: none; stroke: #2563eb; stroke-width: 2.2; stroke-linecap: square"/>
    </g>
    <g id="text_20">
     <!-- maximum -->
     <g transform="translate(419.014732 47.339375) scale(0.08 -0.08)">
      <use xlink:href="#DejaVuSans-6d"/>
      <use xlink:href="#DejaVuSans-61" x="97.412109"/>
      <use xlink:href="#DejaVuSans-78" x="158.691406"/>
      <use xlink:href="#DejaVuSans-69" x="217.871094"/>
      <use xlink:href="#DejaVuSans-6d" x="245.654297"/>
      <use xlink:href="#DejaVuSans-75" x="343.066406"/>
      <use xlink:href="#DejaVuSans-6d" x="406.445312"/>
     </g>
    </g>
    <g id="line2d_32">
     <path d="M 396.614732 56.281875
L 404.614732 56.281875
L 412.614732 56.281875
" style="fill: none; stroke-dasharray: 8.14,3.52; stroke-dashoffset: 0; stroke: #059669; stroke-width: 2.2"/>
    </g>
    <g id="text_21">
     <!-- minimum -->
     <g transform="translate(419.014732 59.081875) scale(0.08 -0.08)">
      <use xlink:href="#DejaVuSans-6d"/>
      <use xlink:href="#DejaVuSans-69" x="97.412109"/>
      <use xlink:href="#DejaVuSans-6e" x="125.195312"/>
      <use xlink:href="#DejaVuSans-69" x="188.574219"/>
      <use xlink:href="#DejaVuSans-6d" x="216.357422"/>
      <use xlink:href="#DejaVuSans-75" x="313.769531"/>
      <use xlink:href="#DejaVuSans-6d" x="377.148438"/>
     </g>
    </g>
   </g>
  </g>
 </g>
 <defs>
  <clipPath id="pab55a588a6">
   <rect x="51.565625" y="22.318125" width="464.572857" height="275.68"/>
  </clipPath>
 </defs>
</svg>
