<?xml version="1.0" encoding="utf-8" standalone="no"?>
<!DOCTYPE svg PUBLIC "-//W3C//DTD SVG 1.1//EN"
  "http://www.w3.org/Graphics/SVG/1.1/DTD/svg11.dtd">
<svg xmlns:xlink="http://www.w3.org/1999/xlink" width="599.696534pt" height="333.893393pt" viewBox="0 0 599.696534 333.893393" xmlns="http://www.w3.org/2000/svg" version="1.1">
 <metadata>
  <rdf:RDF xmlns:dc="http://purl.org/dc/elements/1.1/" xmlns:cc="http://creativecommons.org/ns#" xmlns:rdf="http://www.w3.org/1999/02/22-rdf-syntax-ns#">
   <cc:Work>
    <dc:type rdf:resource="http://purl.org/dc/dcmitype/StillImage"/>
    <dc:date>2026-07-10</dc:date>
    <dc:format>image/svg+xml</dc:format>
    <dc:creator>
     <cc:Agent>
      <dc:title>generate_optimization_figures.py</dc:title>
     </cc:Agent>
    </dc:creator>
   </cc:Work>
  </rdf:RDF>
 </metadata>
 <defs>
  <style type="text/css">*{stroke-linejoin: round; stroke-linecap: butt}</style>
 </defs>
 <g id="figure_1">
  <g id="patch_1">
   <path d="M 0 333.893393
L 599.696534 333.893393
L 599.696534 0
L 0 0
z
" style="fill: #ffffff"/>
  </g>
  <g id="axes_1">
   <g id="patch_2">
    <path d="M 34.240625 296.337143
L 216.227232 296.337143
L 216.227232 63.394286
L 34.240625 63.394286
z
" style="fill: #ffffff"/>
   </g>
   <g id="patch_3">
    <path d="M 43.946577 286.63119
L 189.535863 286.63119
L 189.535863 189.571667
L 92.476339 92.512143
L 43.946577 92.512143
z
" clip-path="url(#p96f4e85c55)" style="fill: #dbeafe; stroke: #2563eb; stroke-width: 2; stroke-linejoin: miter"/>
   </g>
   <g id="matplotlib.axis_1">
    <g id="xtick_1">
     <g id="line2d_1">
      <path d="M 43.946577 296.337143
L 43.946577 63.394286
" clip-path="url(#p96f4e85c55)" style="fill: none; stroke: #b0b0b0; stroke-opacity: 0.15; stroke-width: 0.8; stroke-linecap: square"/>
     </g>
     <g id="line2d_2">
      <defs>
       <path id="m98b229d225" d="M 0 0
L 0 3.5
" style="stroke: #000000; stroke-width: 0.8"/>
      </defs>
      <g>
       <use xlink:href="#m98b229d225" x="43.946577" y="296.337143" style="stroke: #000000; stroke-width: 0.8"/>
      </g>
     </g>
     <g id="text_1">
      <!-- 0 -->
      <g transform="translate(40.765327 310.93558) scale(0.1 -0.1)">
       <defs>
        <path id="DejaVuSans-30" d="M 2034 4250
Q 1547 4250 1301 3770
Q 1056 3291 1056 2328
Q 1056 1369 1301 889
Q 1547 409 2034 409
Q 2525 409 2770 889
Q 3016 1369 3016 2328
Q 3016 3291 2770 3770
Q 2525 4250 2034 4250
z
M 2034 4750
Q 2819 4750 3233 4129
Q 3647 3509 3647 2328
Q 3647 1150 3233 529
Q 2819 -91 2034 -91
Q 1250 -91 836 529
Q 422 1150 422 2328
Q 422 3509 836 4129
Q 1250 4750 2034 4750
z
" transform="scale(0.015625)"/>
       </defs>
       <use xlink:href="#DejaVuSans-30"/>
      </g>
     </g>
    </g>
    <g id="xtick_2">
     <g id="line2d_3">
      <path d="M 92.476339 296.337143
L 92.476339 63.394286
" clip-path="url(#p96f4e85c55)" style="fill: none; stroke: #b0b0b0; stroke-opacity: 0.15; stroke-width: 0.8; stroke-linecap: square"/>
     </g>
     <g id="line2d_4">
      <g>
       <use xlink:href="#m98b229d225" x="92.476339" y="296.337143" style="stroke: #000000; stroke-width: 0.8"/>
      </g>
     </g>
     <g id="text_2">
      <!-- 2 -->
      <g transform="translate(89.295089 310.93558) scale(0.1 -0.1)">
       <defs>
        <path id="DejaVuSans-32" d="M 1228 531
L 3431 531
L 3431 0
L 469 0
L 469 531
Q 828 903 1448 1529
Q 2069 2156 2228 2338
Q 2531 2678 2651 2914
Q 2772 3150 2772 3378
Q 2772 3750 2511 3984
Q 2250 4219 1831 4219
Q 1534 4219 1204 4116
Q 875 4013 500 3803
L 500 4441
Q 881 4594 1212 4672
Q 1544 4750 1819 4750
Q 2544 4750 2975 4387
Q 3406 4025 3406 3419
Q 3406 3131 3298 2873
Q 3191 2616 2906 2266
Q 2828 2175 2409 1742
Q 1991 1309 1228 531
z
" transform="scale(0.015625)"/>
       </defs>
       <use xlink:href="#DejaVuSans-32"/>
      </g>
     </g>
    </g>
    <g id="xtick_3">
     <g id="line2d_5">
      <path d="M 141.006101 296.337143
L 141.006101 63.394286
" clip-path="url(#p96f4e85c55)" style="fill: none; stroke: #b0b0b0; stroke-opacity: 0.15; stroke-width: 0.8; stroke-linecap: square"/>
     </g>
     <g id="line2d_6">
      <g>
       <use xlink:href="#m98b229d225" x="141.006101" y="296.337143" style="stroke: #000000; stroke-width: 0.8"/>
      </g>
     </g>
     <g id="text_3">
      <!-- 4 -->
      <g transform="translate(137.824851 310.93558) scale(0.1 -0.1)">
       <defs>
        <path id="DejaVuSans-34" d="M 2419 4116
L 825 1625
L 2419 1625
L 2419 4116
z
M 2253 4666
L 3047 4666
L 3047 1625
L 3713 1625
L 3713 1100
L 3047 1100
L 3047 0
L 2419 0
L 2419 1100
L 313 1100
L 313 1709
L 2253 4666
z
" transform="scale(0.015625)"/>
       </defs>
       <use xlink:href="#DejaVuSans-34"/>
      </g>
     </g>
    </g>
    <g id="xtick_4">
     <g id="line2d_7">
      <path d="M 189.535863 296.337143
L 189.535863 63.394286
" clip-path="url(#p96f4e85c55)" style="fill: none; stroke: #b0b0b0; stroke-opacity: 0.15; stroke-width: 0.8; stroke-linecap: square"/>
     </g>
     <g id="line2d_8">
      <g>
       <use xlink:href="#m98b229d225" x="189.535863" y="296.337143" style="stroke: #000000; stroke-width: 0.8"/>
      </g>
     </g>
     <g id="text_4">
      <!-- 6 -->
      <g transform="translate(186.354613 310.93558) scale(0.1 -0.1)">
       <defs>
        <path id="DejaVuSans-36" d="M 2113 2584
Q 1688 2584 1439 2293
Q 1191 2003 1191 1497
Q 1191 994 1439 701
Q 1688 409 2113 409
Q 2538 409 2786 701
Q 3034 994 3034 1497
Q 3034 2003 2786 2293
Q 2538 2584 2113 2584
z
M 3366 4563
L 3366 3988
Q 3128 4100 2886 4159
Q 2644 4219 2406 4219
Q 1781 4219 1451 3797
Q 1122 3375 1075 2522
Q 1259 2794 1537 2939
Q 1816 3084 2150 3084
Q 2853 3084 3261 2657
Q 3669 2231 3669 1497
Q 3669 778 3244 343
Q 2819 -91 2113 -91
Q 1303 -91 875 529
Q 447 1150 447 2328
Q 447 3434 972 4092
Q 1497 4750 2381 4750
Q 2619 4750 2861 4703
Q 3103 4656 3366 4563
z
" transform="scale(0.015625)"/>
       </defs>
       <use xlink:href="#DejaVuSans-36"/>
      </g>
     </g>
    </g>
    <g id="text_5">
     <!-- $v_1$ -->
     <g transform="translate(119.883929 324.613705) scale(0.1 -0.1)">
      <defs>
       <path id="DejaVuSans-Oblique-76" d="M 459 3500
L 1069 3500
L 1581 525
L 3256 3500
L 3866 3500
L 1875 0
L 1100 0
L 459 3500
z
" transform="scale(0.015625)"/>
       <path id="DejaVuSans-31" d="M 794 531
L 1825 531
L 1825 4091
L 703 3866
L 703 4441
L 1819 4666
L 2450 4666
L 2450 531
L 3481 531
L 3481 0
L 794 0
L 794 531
z
" transform="scale(0.015625)"/>
      </defs>
      <use xlink:href="#DejaVuSans-Oblique-76" transform="translate(0 0.3125)"/>
      <use xlink:href="#DejaVuSans-31" transform="translate(59.179688 -16.09375) scale(0.7)"/>
     </g>
    </g>
   </g>
   <g id="matplotlib.axis_2">
    <g id="ytick_1">
     <g id="line2d_9">
      <path d="M 34.240625 286.63119
L 216.227232 286.63119
" clip-path="url(#p96f4e85c55)" style="fill: none; stroke: #b0b0b0; stroke-opacity: 0.15; stroke-width: 0.8; stroke-linecap: square"/>
     </g>
     <g id="line2d_10">
      <defs>
       <path id="mc9740bd8ad" d="M 0 0
L -3.5 0
" style="stroke: #000000; stroke-width: 0.8"/>
      </defs>
      <g>
       <use xlink:href="#mc9740bd8ad" x="34.240625" y="286.63119" style="stroke: #000000; stroke-width: 0.8"/>
      </g>
     </g>
     <g id="text_6">
      <!-- 0 -->
      <g transform="translate(20.878125 290.430409) scale(0.1 -0.1)">
       <use xlink:href="#DejaVuSans-30"/>
      </g>
     </g>
    </g>
    <g id="ytick_2">
     <g id="line2d_11">
      <path d="M 34.240625 238.101429
L 216.227232 238.101429
" clip-path="url(#p96f4e85c55)" style="fill: none; stroke: #b0b0b0; stroke-opacity: 0.15; stroke-width: 0.8; stroke-linecap: square"/>
     </g>
     <g id="line2d_12">
      <g>
       <use xlink:href="#mc9740bd8ad" x="34.240625" y="238.101429" style="stroke: #000000; stroke-width: 0.8"/>
      </g>
     </g>
     <g id="text_7">
      <!-- 2 -->
      <g transform="translate(20.878125 241.900647) scale(0.1 -0.1)">
       <use xlink:href="#DejaVuSans-32"/>
      </g>
     </g>
    </g>
    <g id="ytick_3">
     <g id="line2d_13">
      <path d="M 34.240625 189.571667
L 216.227232 189.571667
" clip-path="url(#p96f4e85c55)" style="fill: none; stroke: #b0b0b0; stroke-opacity: 0.15; stroke-width: 0.8; stroke-linecap: square"/>
     </g>
     <g id="line2d_14">
      <g>
       <use xlink:href="#mc9740bd8ad" x="34.240625" y="189.571667" style="stroke: #000000; stroke-width: 0.8"/>
      </g>
     </g>
     <g id="text_8">
      <!-- 4 -->
      <g transform="translate(20.878125 193.370885) scale(0.1 -0.1)">
       <use xlink:href="#DejaVuSans-34"/>
      </g>
     </g>
    </g>
    <g id="ytick_4">
     <g id="line2d_15">
      <path d="M 34.240625 141.041905
L 216.227232 141.041905
" clip-path="url(#p96f4e85c55)" style="fill: none; stroke: #b0b0b0; stroke-opacity: 0.15; stroke-width: 0.8; stroke-linecap: square"/>
     </g>
     <g id="line2d_16">
      <g>
       <use xlink:href="#mc9740bd8ad" x="34.240625" y="141.041905" style="stroke: #000000; stroke-width: 0.8"/>
      </g>
     </g>
     <g id="text_9">
      <!-- 6 -->
      <g transform="translate(20.878125 144.841124) scale(0.1 -0.1)">
       <use xlink:href="#DejaVuSans-36"/>
      </g>
     </g>
    </g>
    <g id="ytick_5">
     <g id="line2d_17">
      <path d="M 34.240625 92.512143
L 216.227232 92.512143
" clip-path="url(#p96f4e85c55)" style="fill: none; stroke: #b0b0b0; stroke-opacity: 0.15; stroke-width: 0.8; stroke-linecap: square"/>
     </g>
     <g id="line2d_18">
      <g>
       <use xlink:href="#mc9740bd8ad" x="34.240625" y="92.512143" style="stroke: #000000; stroke-width: 0.8"/>
      </g>
     </g>
     <g id="text_10">
      <!-- 8 -->
      <g transform="translate(20.878125 96.311362) scale(0.1 -0.1)">
       <defs>
        <path id="DejaVuSans-38" d="M 2034 2216
Q 1584 2216 1326 1975
Q 1069 1734 1069 1313
Q 1069 891 1326 650
Q 1584 409 2034 409
Q 2484 409 2743 651
Q 3003 894 3003 1313
Q 3003 1734 2745 1975
Q 2488 2216 2034 2216
z
M 1403 2484
Q 997 2584 770 2862
Q 544 3141 544 3541
Q 544 4100 942 4425
Q 1341 4750 2034 4750
Q 2731 4750 3128 4425
Q 3525 4100 3525 3541
Q 3525 3141 3298 2862
Q 3072 2584 2669 2484
Q 3125 2378 3379 2068
Q 3634 1759 3634 1313
Q 3634 634 3220 271
Q 2806 -91 2034 -91
Q 1263 -91 848 271
Q 434 634 434 1313
Q 434 1759 690 2068
Q 947 2378 1403 2484
z
M 1172 3481
Q 1172 3119 1398 2916
Q 1625 2713 2034 2713
Q 2441 2713 2670 2916
Q 2900 3119 2900 3481
Q 2900 3844 2670 4047
Q 2441 4250 2034 4250
Q 1625 4250 1398 4047
Q 1172 3844 1172 3481
z
" transform="scale(0.015625)"/>
       </defs>
       <use xlink:href="#DejaVuSans-38"/>
      </g>
     </g>
    </g>
    <g id="text_11">
     <!-- $v_2$ -->
     <g transform="translate(14.798438 185.215714) rotate(-90) scale(0.1 -0.1)">
      <use xlink:href="#DejaVuSans-Oblique-76" transform="translate(0 0.3125)"/>
      <use xlink:href="#DejaVuSans-32" transform="translate(59.179688 -16.09375) scale(0.7)"/>
     </g>
    </g>
   </g>
   <g id="line2d_19">
    <path d="M 43.946577 43.982381
L 213.800744 213.836548
L 213.800744 213.836548
" clip-path="url(#p96f4e85c55)" style="fill: none; stroke-dasharray: 3.7,1.6; stroke-dashoffset: 0; stroke: #64748b"/>
   </g>
   <g id="line2d_20">
    <path d="M 189.535863 296.337143
L 189.535863 63.394286
" clip-path="url(#p96f4e85c55)" style="fill: none; stroke-dasharray: 1,1.65; stroke-dashoffset: 0; stroke: #64748b"/>
   </g>
   <g id="line2d_21">
    <path d="M 34.240625 92.512143
L 216.227232 92.512143
" clip-path="url(#p96f4e85c55)" style="fill: none; stroke-dasharray: 1,1.65; stroke-dashoffset: 0; stroke: #64748b"/>
   </g>
   <g id="line2d_22">
    <path d="M 43.946577 195.637887
L 213.800744 301.796741
L 213.800744 301.796741
" clip-path="url(#p96f4e85c55)" style="fill: none; stroke: #ea580c; stroke-opacity: 0.35; stroke-width: 2; stroke-linecap: square"/>
   </g>
   <g id="line2d_23">
    <path d="M 43.946577 134.975685
L 213.800744 241.134539
L 213.800744 241.134539
" clip-path="url(#p96f4e85c55)" style="fill: none; stroke: #ea580c; stroke-opacity: 0.55; stroke-width: 2; stroke-linecap: square"/>
   </g>
   <g id="line2d_24">
    <path d="M 43.946577 62.181042
L 213.800744 168.339896
L 213.800744 168.339896
" clip-path="url(#p96f4e85c55)" style="fill: none; stroke: #ea580c; stroke-width: 2; stroke-linecap: square"/>
   </g>
   <g id="patch_4">
    <path d="M 34.240625 296.337143
L 34.240625 63.394286
" style="fill: none; stroke: #000000; stroke-width: 0.8; stroke-linejoin: miter; stroke-linecap: square"/>
   </g>
   <g id="patch_5">
    <path d="M 216.227232 296.337143
L 216.227232 63.394286
" style="fill: none; stroke: #000000; stroke-width: 0.8; stroke-linejoin: miter; stroke-linecap: square"/>
   </g>
   <g id="patch_6">
    <path d="M 34.240625 296.337143
L 216.227232 296.337143
" style="fill: none; stroke: #000000; stroke-width: 0.8; stroke-linejoin: miter; stroke-linecap: square"/>
   </g>
   <g id="patch_7">
    <path d="M 34.240625 63.394286
L 216.227232 63.394286
" style="fill: none; stroke: #000000; stroke-width: 0.8; stroke-linejoin: miter; stroke-linecap: square"/>
   </g>
   <g id="patch_8">
    <path d="M 136.421198 83.661193
Q 115.429106 87.889218 95.533038 91.896492
" style="fill: none; stroke: #ea580c; stroke-linecap: round"/>
    <path d="M 99.849184 93.067338
L 95.533038 91.896492
L 99.059403 89.146083
" style="fill: none; stroke: #ea580c; stroke-linecap: round"/>
   </g>
   <g id="text_12">
    <!-- unique optimum $(2,8)$ -->
    <g style="fill: #ea580c" transform="translate(116.74122 79.166458) scale(0.1 -0.1)">
     <defs>
      <path id="DejaVuSans-75" d="M 544 1381
L 544 3500
L 1119 3500
L 1119 1403
Q 1119 906 1312 657
Q 1506 409 1894 409
Q 2359 409 2629 706
Q 2900 1003 2900 1516
L 2900 3500
L 3475 3500
L 3475 0
L 2900 0
L 2900 538
Q 2691 219 2414 64
Q 2138 -91 1772 -91
Q 1169 -91 856 284
Q 544 659 544 1381
z
M 1991 3584
L 1991 3584
z
" transform="scale(0.015625)"/>
      <path id="DejaVuSans-6e" d="M 3513 2113
L 3513 0
L 2938 0
L 2938 2094
Q 2938 2591 2744 2837
Q 2550 3084 2163 3084
Q 1697 3084 1428 2787
Q 1159 2491 1159 1978
L 1159 0
L 581 0
L 581 3500
L 1159 3500
L 1159 2956
Q 1366 3272 1645 3428
Q 1925 3584 2291 3584
Q 2894 3584 3203 3211
Q 3513 2838 3513 2113
z
" transform="scale(0.015625)"/>
      <path id="DejaVuSans-69" d="M 603 3500
L 1178 3500
L 1178 0
L 603 0
L 603 3500
z
M 603 4863
L 1178 4863
L 1178 4134
L 603 4134
L 603 4863
z
" transform="scale(0.015625)"/>
      <path id="DejaVuSans-71" d="M 947 1747
Q 947 1113 1208 752
Q 1469 391 1925 391
Q 2381 391 2643 752
Q 2906 1113 2906 1747
Q 2906 2381 2643 2742
Q 2381 3103 1925 3103
Q 1469 3103 1208 2742
Q 947 2381 947 1747
z
M 2906 525
Q 2725 213 2448 61
Q 2172 -91 1784 -91
Q 1150 -91 751 415
Q 353 922 353 1747
Q 353 2572 751 3078
Q 1150 3584 1784 3584
Q 2172 3584 2448 3432
Q 2725 3281 2906 2969
L 2906 3500
L 3481 3500
L 3481 -1331
L 2906 -1331
L 2906 525
z
" transform="scale(0.015625)"/>
      <path id="DejaVuSans-65" d="M 3597 1894
L 3597 1613
L 953 1613
Q 991 1019 1311 708
Q 1631 397 2203 397
Q 2534 397 2845 478
Q 3156 559 3463 722
L 3463 178
Q 3153 47 2828 -22
Q 2503 -91 2169 -91
Q 1331 -91 842 396
Q 353 884 353 1716
Q 353 2575 817 3079
Q 1281 3584 2069 3584
Q 2775 3584 3186 3129
Q 3597 2675 3597 1894
z
M 3022 2063
Q 3016 2534 2758 2815
Q 2500 3097 2075 3097
Q 1594 3097 1305 2825
Q 1016 2553 972 2059
L 3022 2063
z
" transform="scale(0.015625)"/>
      <path id="DejaVuSans-20" transform="scale(0.015625)"/>
      <path id="DejaVuSans-6f" d="M 1959 3097
Q 1497 3097 1228 2736
Q 959 2375 959 1747
Q 959 1119 1226 758
Q 1494 397 1959 397
Q 2419 397 2687 759
Q 2956 1122 2956 1747
Q 2956 2369 2687 2733
Q 2419 3097 1959 3097
z
M 1959 3584
Q 2709 3584 3137 3096
Q 3566 2609 3566 1747
Q 3566 888 3137 398
Q 2709 -91 1959 -91
Q 1206 -91 779 398
Q 353 888 353 1747
Q 353 2609 779 3096
Q 1206 3584 1959 3584
z
" transform="scale(0.015625)"/>
      <path id="DejaVuSans-70" d="M 1159 525
L 1159 -1331
L 581 -1331
L 581 3500
L 1159 3500
L 1159 2969
Q 1341 3281 1617 3432
Q 1894 3584 2278 3584
Q 2916 3584 3314 3078
Q 3713 2572 3713 1747
Q 3713 922 3314 415
Q 2916 -91 2278 -91
Q 1894 -91 1617 61
Q 1341 213 1159 525
z
M 3116 1747
Q 3116 2381 2855 2742
Q 2594 3103 2138 3103
Q 1681 3103 1420 2742
Q 1159 2381 1159 1747
Q 1159 1113 1420 752
Q 1681 391 2138 391
Q 2594 391 2855 752
Q 3116 1113 3116 1747
z
" transform="scale(0.015625)"/>
      <path id="DejaVuSans-74" d="M 1172 4494
L 1172 3500
L 2356 3500
L 2356 3053
L 1172 3053
L 1172 1153
Q 1172 725 1289 603
Q 1406 481 1766 481
L 2356 481
L 2356 0
L 1766 0
Q 1100 0 847 248
Q 594 497 594 1153
L 594 3053
L 172 3053
L 172 3500
L 594 3500
L 594 4494
L 1172 4494
z
" transform="scale(0.015625)"/>
      <path id="DejaVuSans-6d" d="M 3328 2828
Q 3544 3216 3844 3400
Q 4144 3584 4550 3584
Q 5097 3584 5394 3201
Q 5691 2819 5691 2113
L 5691 0
L 5113 0
L 5113 2094
Q 5113 2597 4934 2840
Q 4756 3084 4391 3084
Q 3944 3084 3684 2787
Q 3425 2491 3425 1978
L 3425 0
L 2847 0
L 2847 2094
Q 2847 2600 2669 2842
Q 2491 3084 2119 3084
Q 1678 3084 1418 2786
Q 1159 2488 1159 1978
L 1159 0
L 581 0
L 581 3500
L 1159 3500
L 1159 2956
Q 1356 3278 1631 3431
Q 1906 3584 2284 3584
Q 2666 3584 2933 3390
Q 3200 3197 3328 2828
z
" transform="scale(0.015625)"/>
      <path id="DejaVuSans-28" d="M 1984 4856
Q 1566 4138 1362 3434
Q 1159 2731 1159 2009
Q 1159 1288 1364 580
Q 1569 -128 1984 -844
L 1484 -844
Q 1016 -109 783 600
Q 550 1309 550 2009
Q 550 2706 781 3412
Q 1013 4119 1484 4856
L 1984 4856
z
" transform="scale(0.015625)"/>
      <path id="DejaVuSans-2c" d="M 750 794
L 1409 794
L 1409 256
L 897 -744
L 494 -744
L 750 256
L 750 794
z
" transform="scale(0.015625)"/>
      <path id="DejaVuSans-29" d="M 513 4856
L 1013 4856
Q 1481 4119 1714 3412
Q 1947 2706 1947 2009
Q 1947 1309 1714 600
Q 1481 -109 1013 -844
L 513 -844
Q 928 -128 1133 580
Q 1338 1288 1338 2009
Q 1338 2731 1133 3434
Q 928 4138 513 4856
z
" transform="scale(0.015625)"/>
     </defs>
     <use xlink:href="#DejaVuSans-75" transform="translate(0 0.015625)"/>
     <use xlink:href="#DejaVuSans-6e" transform="translate(63.378906 0.015625)"/>
     <use xlink:href="#DejaVuSans-69" transform="translate(126.757812 0.015625)"/>
     <use xlink:href="#DejaVuSans-71" transform="translate(154.541016 0.015625)"/>
     <use xlink:href="#DejaVuSans-75" transform="translate(218.017578 0.015625)"/>
     <use xlink:href="#DejaVuSans-65" transform="translate(281.396484 0.015625)"/>
     <use xlink:href="#DejaVuSans-20" transform="translate(342.919922 0.015625)"/>
     <use xlink:href="#DejaVuSans-6f" transform="translate(374.707031 0.015625)"/>
     <use xlink:href="#DejaVuSans-70" transform="translate(435.888672 0.015625)"/>
     <use xlink:href="#DejaVuSans-74" transform="translate(499.365234 0.015625)"/>
     <use xlink:href="#DejaVuSans-69" transform="translate(538.574219 0.015625)"/>
     <use xlink:href="#DejaVuSans-6d" transform="translate(566.357422 0.015625)"/>
     <use xlink:href="#DejaVuSans-75" transform="translate(663.769531 0.015625)"/>
     <use xlink:href="#DejaVuSans-6d" transform="translate(727.148438 0.015625)"/>
     <use xlink:href="#DejaVuSans-20" transform="translate(824.560547 0.015625)"/>
     <use xlink:href="#DejaVuSans-28" transform="translate(856.347656 0.015625)"/>
     <use xlink:href="#DejaVuSans-32" transform="translate(895.361328 0.015625)"/>
     <use xlink:href="#DejaVuSans-2c" transform="translate(958.984375 0.015625)"/>
     <use xlink:href="#DejaVuSans-38" transform="translate(1010.253906 0.015625)"/>
     <use xlink:href="#DejaVuSans-29" transform="translate(1073.876953 0.015625)"/>
    </g>
   </g>
   <g id="text_13">
    <!-- LP: move $0.5v_1+0.8v_2=Z$ outward -->
    <g transform="translate(18.493929 57.394286) scale(0.12 -0.12)">
     <defs>
      <path id="DejaVuSans-4c" d="M 628 4666
L 1259 4666
L 1259 531
L 3531 531
L 3531 0
L 628 0
L 628 4666
z
" transform="scale(0.015625)"/>
      <path id="DejaVuSans-50" d="M 1259 4147
L 1259 2394
L 2053 2394
Q 2494 2394 2734 2622
Q 2975 2850 2975 3272
Q 2975 3691 2734 3919
Q 2494 4147 2053 4147
L 1259 4147
z
M 628 4666
L 2053 4666
Q 2838 4666 3239 4311
Q 3641 3956 3641 3272
Q 3641 2581 3239 2228
Q 2838 1875 2053 1875
L 1259 1875
L 1259 0
L 628 0
L 628 4666
z
" transform="scale(0.015625)"/>
      <path id="DejaVuSans-3a" d="M 750 794
L 1409 794
L 1409 0
L 750 0
L 750 794
z
M 750 3309
L 1409 3309
L 1409 2516
L 750 2516
L 750 3309
z
" transform="scale(0.015625)"/>
      <path id="DejaVuSans-76" d="M 191 3500
L 800 3500
L 1894 563
L 2988 3500
L 3597 3500
L 2284 0
L 1503 0
L 191 3500
z
" transform="scale(0.015625)"/>
      <path id="DejaVuSans-2e" d="M 684 794
L 1344 794
L 1344 0
L 684 0
L 684 794
z
" transform="scale(0.015625)"/>
      <path id="DejaVuSans-35" d="M 691 4666
L 3169 4666
L 3169 4134
L 1269 4134
L 1269 2991
Q 1406 3038 1543 3061
Q 1681 3084 1819 3084
Q 2600 3084 3056 2656
Q 3513 2228 3513 1497
Q 3513 744 3044 326
Q 2575 -91 1722 -91
Q 1428 -91 1123 -41
Q 819 9 494 109
L 494 744
Q 775 591 1075 516
Q 1375 441 1709 441
Q 2250 441 2565 725
Q 2881 1009 2881 1497
Q 2881 1984 2565 2268
Q 2250 2553 1709 2553
Q 1456 2553 1204 2497
Q 953 2441 691 2322
L 691 4666
z
" transform="scale(0.015625)"/>
      <path id="DejaVuSans-2b" d="M 2944 4013
L 2944 2272
L 4684 2272
L 4684 1741
L 2944 1741
L 2944 0
L 2419 0
L 2419 1741
L 678 1741
L 678 2272
L 2419 2272
L 2419 4013
L 2944 4013
z
" transform="scale(0.015625)"/>
      <path id="DejaVuSans-3d" d="M 678 2906
L 4684 2906
L 4684 2381
L 678 2381
L 678 2906
z
M 678 1631
L 4684 1631
L 4684 1100
L 678 1100
L 678 1631
z
" transform="scale(0.015625)"/>
      <path id="DejaVuSans-Oblique-5a" d="M 838 4666
L 4500 4666
L 4409 4184
L 794 531
L 3769 531
L 3669 0
L -141 0
L -50 481
L 3566 4134
L 738 4134
L 838 4666
z
" transform="scale(0.015625)"/>
      <path id="DejaVuSans-77" d="M 269 3500
L 844 3500
L 1563 769
L 2278 3500
L 2956 3500
L 3675 769
L 4391 3500
L 4966 3500
L 4050 0
L 3372 0
L 2619 2869
L 1863 0
L 1184 0
L 269 3500
z
" transform="scale(0.015625)"/>
      <path id="DejaVuSans-61" d="M 2194 1759
Q 1497 1759 1228 1600
Q 959 1441 959 1056
Q 959 750 1161 570
Q 1363 391 1709 391
Q 2188 391 2477 730
Q 2766 1069 2766 1631
L 2766 1759
L 2194 1759
z
M 3341 1997
L 3341 0
L 2766 0
L 2766 531
Q 2569 213 2275 61
Q 1981 -91 1556 -91
Q 1019 -91 701 211
Q 384 513 384 1019
Q 384 1609 779 1909
Q 1175 2209 1959 2209
L 2766 2209
L 2766 2266
Q 2766 2663 2505 2880
Q 2244 3097 1772 3097
Q 1472 3097 1187 3025
Q 903 2953 641 2809
L 641 3341
Q 956 3463 1253 3523
Q 1550 3584 1831 3584
Q 2591 3584 2966 3190
Q 3341 2797 3341 1997
z
" transform="scale(0.015625)"/>
      <path id="DejaVuSans-72" d="M 2631 2963
Q 2534 3019 2420 3045
Q 2306 3072 2169 3072
Q 1681 3072 1420 2755
Q 1159 2438 1159 1844
L 1159 0
L 581 0
L 581 3500
L 1159 3500
L 1159 2956
Q 1341 3275 1631 3429
Q 1922 3584 2338 3584
Q 2397 3584 2469 3576
Q 2541 3569 2628 3553
L 2631 2963
z
" transform="scale(0.015625)"/>
      <path id="DejaVuSans-64" d="M 2906 2969
L 2906 4863
L 3481 4863
L 3481 0
L 2906 0
L 2906 525
Q 2725 213 2448 61
Q 2172 -91 1784 -91
Q 1150 -91 751 415
Q 353 922 353 1747
Q 353 2572 751 3078
Q 1150 3584 1784 3584
Q 2172 3584 2448 3432
Q 2725 3281 2906 2969
z
M 947 1747
Q 947 1113 1208 752
Q 1469 391 1925 391
Q 2381 391 2643 752
Q 2906 1113 2906 1747
Q 2906 2381 2643 2742
Q 2381 3103 1925 3103
Q 1469 3103 1208 2742
Q 947 2381 947 1747
z
" transform="scale(0.015625)"/>
     </defs>
     <use xlink:href="#DejaVuSans-4c" transform="translate(0 0.015625)"/>
     <use xlink:href="#DejaVuSans-50" transform="translate(55.712891 0.015625)"/>
     <use xlink:href="#DejaVuSans-3a" transform="translate(116.015625 0.015625)"/>
     <use xlink:href="#DejaVuSans-20" transform="translate(149.707031 0.015625)"/>
     <use xlink:href="#DejaVuSans-6d" transform="translate(181.494141 0.015625)"/>
     <use xlink:href="#DejaVuSans-6f" transform="translate(278.90625 0.015625)"/>
     <use xlink:href="#DejaVuSans-76" transform="translate(340.087891 0.015625)"/>
     <use xlink:href="#DejaVuSans-65" transform="translate(399.267578 0.015625)"/>
     <use xlink:href="#DejaVuSans-20" transform="translate(460.791016 0.015625)"/>
     <use xlink:href="#DejaVuSans-30" transform="translate(492.578125 0.015625)"/>
     <use xlink:href="#DejaVuSans-2e" transform="translate(556.201172 0.015625)"/>
     <use xlink:href="#DejaVuSans-35" transform="translate(587.988281 0.015625)"/>
     <use xlink:href="#DejaVuSans-Oblique-76" transform="translate(651.611328 0.015625)"/>
     <use xlink:href="#DejaVuSans-31" transform="translate(710.791016 -16.390625) scale(0.7)"/>
     <use xlink:href="#DejaVuSans-2b" transform="translate(777.543945 0.015625)"/>
     <use xlink:href="#DejaVuSans-30" transform="translate(880.81543 0.015625)"/>
     <use xlink:href="#DejaVuSans-2e" transform="translate(944.438477 0.015625)"/>
     <use xlink:href="#DejaVuSans-38" transform="translate(973.600586 0.015625)"/>
     <use xlink:href="#DejaVuSans-Oblique-76" transform="translate(1037.223633 0.015625)"/>
     <use xlink:href="#DejaVuSans-32" transform="translate(1096.40332 -16.390625) scale(0.7)"/>
     <use xlink:href="#DejaVuSans-3d" transform="translate(1163.15625 0.015625)"/>
     <use xlink:href="#DejaVuSans-Oblique-5a" transform="translate(1266.427734 0.015625)"/>
     <use xlink:href="#DejaVuSans-20" transform="translate(1334.933594 0.015625)"/>
     <use xlink:href="#DejaVuSans-6f" transform="translate(1366.720703 0.015625)"/>
     <use xlink:href="#DejaVuSans-75" transform="translate(1427.902344 0.015625)"/>
     <use xlink:href="#DejaVuSans-74" transform="translate(1491.28125 0.015625)"/>
     <use xlink:href="#DejaVuSans-77" transform="translate(1530.490234 0.015625)"/>
     <use xlink:href="#DejaVuSans-61" transform="translate(1612.277344 0.015625)"/>
     <use xlink:href="#DejaVuSans-72" transform="translate(1673.556641 0.015625)"/>
     <use xlink:href="#DejaVuSans-64" transform="translate(1714.669922 0.015625)"/>
    </g>
   </g>
   <g id="PathCollection_1">
    <defs>
     <path id="m77ac99bad9" d="M 0 3
C 0.795609 3 1.55874 2.683901 2.12132 2.12132
C 2.683901 1.55874 3 0.795609 3 0
C 3 -0.795609 2.683901 -1.55874 2.12132 -2.12132
C 1.55874 -2.683901 0.795609 -3 0 -3
C -0.795609 -3 -1.55874 -2.683901 -2.12132 -2.12132
C -2.683901 -1.55874 -3 -0.795609 -3 0
C -3 0.795609 -2.683901 1.55874 -2.12132 2.12132
C -1.55874 2.683901 -0.795609 3 0 3
z
" style="stroke: #2563eb"/>
    </defs>
    <g clip-path="url(#p96f4e85c55)">
     <use xlink:href="#m77ac99bad9" x="43.946577" y="286.63119" style="fill: #2563eb; stroke: #2563eb"/>
     <use xlink:href="#m77ac99bad9" x="189.535863" y="286.63119" style="fill: #2563eb; stroke: #2563eb"/>
     <use xlink:href="#m77ac99bad9" x="189.535863" y="189.571667" style="fill: #2563eb; stroke: #2563eb"/>
     <use xlink:href="#m77ac99bad9" x="92.476339" y="92.512143" style="fill: #2563eb; stroke: #2563eb"/>
     <use xlink:href="#m77ac99bad9" x="43.946577" y="92.512143" style="fill: #2563eb; stroke: #2563eb"/>
    </g>
   </g>
   <g id="PathCollection_2">
    <defs>
     <path id="m9859e51e84" d="M 0 4.743416
C 1.257969 4.743416 2.464584 4.24362 3.354102 3.354102
C 4.24362 2.464584 4.743416 1.257969 4.743416 0
C 4.743416 -1.257969 4.24362 -2.464584 3.354102 -3.354102
C 2.464584 -4.24362 1.257969 -4.743416 0 -4.743416
C -1.257969 -4.743416 -2.464584 -4.24362 -3.354102 -3.354102
C -4.24362 -2.464584 -4.743416 -1.257969 -4.743416 0
C -4.743416 1.257969 -4.24362 2.464584 -3.354102 3.354102
C -2.464584 4.24362 -1.257969 4.743416 0 4.743416
z
" style="stroke: #ffffff"/>
    </defs>
    <g clip-path="url(#p96f4e85c55)">
     <use xlink:href="#m9859e51e84" x="92.476339" y="92.512143" style="fill: #ea580c; stroke: #ffffff"/>
    </g>
   </g>
  </g>
  <g id="axes_2">
   <g id="patch_9">
    <path d="M 393.900403 296.337143
L 575.88701 296.337143
L 575.88701 63.394286
L 393.900403 63.394286
z
" style="fill: #ffffff"/>
   </g>
   <g id="patch_10">
    <path d="M 403.606356 286.63119
L 549.195641 286.63119
L 549.195641 189.571667
L 452.136118 92.512143
L 403.606356 92.512143
z
" clip-path="url(#p1fd6a7c8c9)" style="fill: #dbeafe; stroke: #2563eb; stroke-width: 2; stroke-linejoin: miter"/>
   </g>
   <g id="matplotlib.axis_3">
    <g id="xtick_5">
     <g id="line2d_25">
      <path d="M 403.606356 296.337143
L 403.606356 63.394286
" clip-path="url(#p1fd6a7c8c9)" style="fill: none; stroke: #b0b0b0; stroke-opacity: 0.15; stroke-width: 0.8; stroke-linecap: square"/>
     </g>
     <g id="line2d_26">
      <g>
       <use xlink:href="#m98b229d225" x="403.606356" y="296.337143" style="stroke: #000000; stroke-width: 0.8"/>
      </g>
     </g>
     <g id="text_14">
      <!-- 0 -->
      <g transform="translate(400.425106 310.93558) scale(0.1 -0.1)">
       <use xlink:href="#DejaVuSans-30"/>
      </g>
     </g>
    </g>
    <g id="xtick_6">
     <g id="line2d_27">
      <path d="M 452.136118 296.337143
L 452.136118 63.394286
" clip-path="url(#p1fd6a7c8c9)" style="fill: none; stroke: #b0b0b0; stroke-opacity: 0.15; stroke-width: 0.8; stroke-linecap: square"/>
     </g>
     <g id="line2d_28">
      <g>
       <use xlink:href="#m98b229d225" x="452.136118" y="296.337143" style="stroke: #000000; stroke-width: 0.8"/>
      </g>
     </g>
     <g id="text_15">
      <!-- 2 -->
      <g transform="translate(448.954868 310.93558) scale(0.1 -0.1)">
       <use xlink:href="#DejaVuSans-32"/>
      </g>
     </g>
    </g>
    <g id="xtick_7">
     <g id="line2d_29">
      <path d="M 500.665879 296.337143
L 500.665879 63.394286
" clip-path="url(#p1fd6a7c8c9)" style="fill: none; stroke: #b0b0b0; stroke-opacity: 0.15; stroke-width: 0.8; stroke-linecap: square"/>
     </g>
     <g id="line2d_30">
      <g>
       <use xlink:href="#m98b229d225" x="500.665879" y="296.337143" style="stroke: #000000; stroke-width: 0.8"/>
      </g>
     </g>
     <g id="text_16">
      <!-- 4 -->
      <g transform="translate(497.484629 310.93558) scale(0.1 -0.1)">
       <use xlink:href="#DejaVuSans-34"/>
      </g>
     </g>
    </g>
    <g id="xtick_8">
     <g id="line2d_31">
      <path d="M 549.195641 296.337143
L 549.195641 63.394286
" clip-path="url(#p1fd6a7c8c9)" style="fill: none; stroke: #b0b0b0; stroke-opacity: 0.15; stroke-width: 0.8; stroke-linecap: square"/>
     </g>
     <g id="line2d_32">
      <g>
       <use xlink:href="#m98b229d225" x="549.195641" y="296.337143" style="stroke: #000000; stroke-width: 0.8"/>
      </g>
     </g>
     <g id="text_17">
      <!-- 6 -->
      <g transform="translate(546.014391 310.93558) scale(0.1 -0.1)">
       <use xlink:href="#DejaVuSans-36"/>
      </g>
     </g>
    </g>
    <g id="text_18">
     <!-- $v_1$ -->
     <g transform="translate(479.543707 324.613705) scale(0.1 -0.1)">
      <use xlink:href="#DejaVuSans-Oblique-76" transform="translate(0 0.3125)"/>
      <use xlink:href="#DejaVuSans-31" transform="translate(59.179688 -16.09375) scale(0.7)"/>
     </g>
    </g>
   </g>
   <g id="matplotlib.axis_4">
    <g id="ytick_6">
     <g id="line2d_33">
      <path d="M 393.900403 286.63119
L 575.88701 286.63119
" clip-path="url(#p1fd6a7c8c9)" style="fill: none; stroke: #b0b0b0; stroke-opacity: 0.15; stroke-width: 0.8; stroke-linecap: square"/>
     </g>
     <g id="line2d_34">
      <g>
       <use xlink:href="#mc9740bd8ad" x="393.900403" y="286.63119" style="stroke: #000000; stroke-width: 0.8"/>
      </g>
     </g>
    </g>
    <g id="ytick_7">
     <g id="line2d_35">
      <path d="M 393.900403 238.101429
L 575.88701 238.101429
" clip-path="url(#p1fd6a7c8c9)" style="fill: none; stroke: #b0b0b0; stroke-opacity: 0.15; stroke-width: 0.8; stroke-linecap: square"/>
     </g>
     <g id="line2d_36">
      <g>
       <use xlink:href="#mc9740bd8ad" x="393.900403" y="238.101429" style="stroke: #000000; stroke-width: 0.8"/>
      </g>
     </g>
    </g>
    <g id="ytick_8">
     <g id="line2d_37">
      <path d="M 393.900403 189.571667
L 575.88701 189.571667
" clip-path="url(#p1fd6a7c8c9)" style="fill: none; stroke: #b0b0b0; stroke-opacity: 0.15; stroke-width: 0.8; stroke-linecap: square"/>
     </g>
     <g id="line2d_38">
      <g>
       <use xlink:href="#mc9740bd8ad" x="393.900403" y="189.571667" style="stroke: #000000; stroke-width: 0.8"/>
      </g>
     </g>
    </g>
    <g id="ytick_9">
     <g id="line2d_39">
      <path d="M 393.900403 141.041905
L 575.88701 141.041905
" clip-path="url(#p1fd6a7c8c9)" style="fill: none; stroke: #b0b0b0; stroke-opacity: 0.15; stroke-width: 0.8; stroke-linecap: square"/>
     </g>
     <g id="line2d_40">
      <g>
       <use xlink:href="#mc9740bd8ad" x="393.900403" y="141.041905" style="stroke: #000000; stroke-width: 0.8"/>
      </g>
     </g>
    </g>
    <g id="ytick_10">
     <g id="line2d_41">
      <path d="M 393.900403 92.512143
L 575.88701 92.512143
" clip-path="url(#p1fd6a7c8c9)" style="fill: none; stroke: #b0b0b0; stroke-opacity: 0.15; stroke-width: 0.8; stroke-linecap: square"/>
     </g>
     <g id="line2d_42">
      <g>
       <use xlink:href="#mc9740bd8ad" x="393.900403" y="92.512143" style="stroke: #000000; stroke-width: 0.8"/>
      </g>
     </g>
    </g>
    <g id="text_19">
     <!-- $v_2$ -->
     <g transform="translate(384.320716 185.215714) rotate(-90) scale(0.1 -0.1)">
      <use xlink:href="#DejaVuSans-Oblique-76" transform="translate(0 0.3125)"/>
      <use xlink:href="#DejaVuSans-32" transform="translate(59.179688 -16.09375) scale(0.7)"/>
     </g>
    </g>
   </g>
   <g id="line2d_43">
    <path d="M 403.606356 43.982381
L 573.460522 213.836548
L 573.460522 213.836548
" clip-path="url(#p1fd6a7c8c9)" style="fill: none; stroke-dasharray: 3.7,1.6; stroke-dashoffset: 0; stroke: #64748b"/>
   </g>
   <g id="line2d_44">
    <path d="M 549.195641 296.337143
L 549.195641 63.394286
" clip-path="url(#p1fd6a7c8c9)" style="fill: none; stroke-dasharray: 1,1.65; stroke-dashoffset: 0; stroke: #64748b"/>
   </g>
   <g id="line2d_45">
    <path d="M 393.900403 92.512143
L 575.88701 92.512143
" clip-path="url(#p1fd6a7c8c9)" style="fill: none; stroke-dasharray: 1,1.65; stroke-dashoffset: 0; stroke: #64748b"/>
   </g>
   <g id="line2d_46">
    <path d="M 403.606356 43.982381
L 573.460522 213.836548
L 573.460522 213.836548
" clip-path="url(#p1fd6a7c8c9)" style="fill: none; stroke: #ea580c; stroke-width: 4; stroke-linecap: round"/>
   </g>
   <g id="patch_11">
    <path d="M 393.900403 296.337143
L 393.900403 63.394286
" style="fill: none; stroke: #000000; stroke-width: 0.8; stroke-linejoin: miter; stroke-linecap: square"/>
   </g>
   <g id="patch_12">
    <path d="M 575.88701 296.337143
L 575.88701 63.394286
" style="fill: none; stroke: #000000; stroke-width: 0.8; stroke-linejoin: miter; stroke-linecap: square"/>
   </g>
   <g id="patch_13">
    <path d="M 393.900403 296.337143
L 575.88701 296.337143
" style="fill: none; stroke: #000000; stroke-width: 0.8; stroke-linejoin: miter; stroke-linecap: square"/>
   </g>
   <g id="patch_14">
    <path d="M 393.900403 63.394286
L 575.88701 63.394286
" style="fill: none; stroke: #000000; stroke-width: 0.8; stroke-linejoin: miter; stroke-linecap: square"/>
   </g>
   <g id="patch_15">
    <path d="M 504.716284 82.816036
Q 502.760426 110.932122 500.882155 137.93287
" style="fill: none; stroke: #ea580c; stroke-linecap: round"/>
    <path d="M 503.154917 134.081305
L 500.882155 137.93287
L 499.164561 133.803722
" style="fill: none; stroke: #ea580c; stroke-linecap: round"/>
   </g>
   <g id="text_20">
    <!-- every point on this edge is optimal -->
    <g style="fill: #ea580c" transform="translate(418.165284 76.73997) scale(0.1 -0.1)">
     <defs>
      <path id="DejaVuSans-79" d="M 2059 -325
Q 1816 -950 1584 -1140
Q 1353 -1331 966 -1331
L 506 -1331
L 506 -850
L 844 -850
Q 1081 -850 1212 -737
Q 1344 -625 1503 -206
L 1606 56
L 191 3500
L 800 3500
L 1894 763
L 2988 3500
L 3597 3500
L 2059 -325
z
" transform="scale(0.015625)"/>
      <path id="DejaVuSans-68" d="M 3513 2113
L 3513 0
L 2938 0
L 2938 2094
Q 2938 2591 2744 2837
Q 2550 3084 2163 3084
Q 1697 3084 1428 2787
Q 1159 2491 1159 1978
L 1159 0
L 581 0
L 581 4863
L 1159 4863
L 1159 2956
Q 1366 3272 1645 3428
Q 1925 3584 2291 3584
Q 2894 3584 3203 3211
Q 3513 2838 3513 2113
z
" transform="scale(0.015625)"/>
      <path id="DejaVuSans-73" d="M 2834 3397
L 2834 2853
Q 2591 2978 2328 3040
Q 2066 3103 1784 3103
Q 1356 3103 1142 2972
Q 928 2841 928 2578
Q 928 2378 1081 2264
Q 1234 2150 1697 2047
L 1894 2003
Q 2506 1872 2764 1633
Q 3022 1394 3022 966
Q 3022 478 2636 193
Q 2250 -91 1575 -91
Q 1294 -91 989 -36
Q 684 19 347 128
L 347 722
Q 666 556 975 473
Q 1284 391 1588 391
Q 1994 391 2212 530
Q 2431 669 2431 922
Q 2431 1156 2273 1281
Q 2116 1406 1581 1522
L 1381 1569
Q 847 1681 609 1914
Q 372 2147 372 2553
Q 372 3047 722 3315
Q 1072 3584 1716 3584
Q 2034 3584 2315 3537
Q 2597 3491 2834 3397
z
" transform="scale(0.015625)"/>
      <path id="DejaVuSans-67" d="M 2906 1791
Q 2906 2416 2648 2759
Q 2391 3103 1925 3103
Q 1463 3103 1205 2759
Q 947 2416 947 1791
Q 947 1169 1205 825
Q 1463 481 1925 481
Q 2391 481 2648 825
Q 2906 1169 2906 1791
z
M 3481 434
Q 3481 -459 3084 -895
Q 2688 -1331 1869 -1331
Q 1566 -1331 1297 -1286
Q 1028 -1241 775 -1147
L 775 -588
Q 1028 -725 1275 -790
Q 1522 -856 1778 -856
Q 2344 -856 2625 -561
Q 2906 -266 2906 331
L 2906 616
Q 2728 306 2450 153
Q 2172 0 1784 0
Q 1141 0 747 490
Q 353 981 353 1791
Q 353 2603 747 3093
Q 1141 3584 1784 3584
Q 2172 3584 2450 3431
Q 2728 3278 2906 2969
L 2906 3500
L 3481 3500
L 3481 434
z
" transform="scale(0.015625)"/>
      <path id="DejaVuSans-6c" d="M 603 4863
L 1178 4863
L 1178 0
L 603 0
L 603 4863
z
" transform="scale(0.015625)"/>
     </defs>
     <use xlink:href="#DejaVuSans-65"/>
     <use xlink:href="#DejaVuSans-76" x="61.523438"/>
     <use xlink:href="#DejaVuSans-65" x="120.703125"/>
     <use xlink:href="#DejaVuSans-72" x="182.226562"/>
     <use xlink:href="#DejaVuSans-79" x="223.339844"/>
     <use xlink:href="#DejaVuSans-20" x="282.519531"/>
     <use xlink:href="#DejaVuSans-70" x="314.306641"/>
     <use xlink:href="#DejaVuSans-6f" x="377.783203"/>
     <use xlink:href="#DejaVuSans-69" x="438.964844"/>
     <use xlink:href="#DejaVuSans-6e" x="466.748047"/>
     <use xlink:href="#DejaVuSans-74" x="530.126953"/>
     <use xlink:href="#DejaVuSans-20" x="569.335938"/>
     <use xlink:href="#DejaVuSans-6f" x="601.123047"/>
     <use xlink:href="#DejaVuSans-6e" x="662.304688"/>
     <use xlink:href="#DejaVuSans-20" x="725.683594"/>
     <use xlink:href="#DejaVuSans-74" x="757.470703"/>
     <use xlink:href="#DejaVuSans-68" x="796.679688"/>
     <use xlink:href="#DejaVuSans-69" x="860.058594"/>
     <use xlink:href="#DejaVuSans-73" x="887.841797"/>
     <use xlink:href="#DejaVuSans-20" x="939.941406"/>
     <use xlink:href="#DejaVuSans-65" x="971.728516"/>
     <use xlink:href="#DejaVuSans-64" x="1033.251953"/>
     <use xlink:href="#DejaVuSans-67" x="1096.728516"/>
     <use xlink:href="#DejaVuSans-65" x="1160.205078"/>
     <use xlink:href="#DejaVuSans-20" x="1221.728516"/>
     <use xlink:href="#DejaVuSans-69" x="1253.515625"/>
     <use xlink:href="#DejaVuSans-73" x="1281.298828"/>
     <use xlink:href="#DejaVuSans-20" x="1333.398438"/>
     <use xlink:href="#DejaVuSans-6f" x="1365.185547"/>
     <use xlink:href="#DejaVuSans-70" x="1426.367188"/>
     <use xlink:href="#DejaVuSans-74" x="1489.84375"/>
     <use xlink:href="#DejaVuSans-69" x="1529.052734"/>
     <use xlink:href="#DejaVuSans-6d" x="1556.835938"/>
     <use xlink:href="#DejaVuSans-61" x="1654.248047"/>
     <use xlink:href="#DejaVuSans-6c" x="1715.527344"/>
    </g>
   </g>
   <g id="text_21">
    <!-- Alternate optima: $0.5v_1+0.5v_2=5$ -->
    <g transform="translate(379.773707 57.394286) scale(0.12 -0.12)">
     <defs>
      <path id="DejaVuSans-41" d="M 2188 4044
L 1331 1722
L 3047 1722
L 2188 4044
z
M 1831 4666
L 2547 4666
L 4325 0
L 3669 0
L 3244 1197
L 1141 1197
L 716 0
L 50 0
L 1831 4666
z
" transform="scale(0.015625)"/>
     </defs>
     <use xlink:href="#DejaVuSans-41" transform="translate(0 0.015625)"/>
     <use xlink:href="#DejaVuSans-6c" transform="translate(68.408203 0.015625)"/>
     <use xlink:href="#DejaVuSans-74" transform="translate(96.191406 0.015625)"/>
     <use xlink:href="#DejaVuSans-65" transform="translate(135.400391 0.015625)"/>
     <use xlink:href="#DejaVuSans-72" transform="translate(196.923828 0.015625)"/>
     <use xlink:href="#DejaVuSans-6e" transform="translate(238.037109 0.015625)"/>
     <use xlink:href="#DejaVuSans-61" transform="translate(301.416016 0.015625)"/>
     <use xlink:href="#DejaVuSans-74" transform="translate(362.695312 0.015625)"/>
     <use xlink:href="#DejaVuSans-65" transform="translate(401.904297 0.015625)"/>
     <use xlink:href="#DejaVuSans-20" transform="translate(463.427734 0.015625)"/>
     <use xlink:href="#DejaVuSans-6f" transform="translate(495.214844 0.015625)"/>
     <use xlink:href="#DejaVuSans-70" transform="translate(556.396484 0.015625)"/>
     <use xlink:href="#DejaVuSans-74" transform="translate(619.873047 0.015625)"/>
     <use xlink:href="#DejaVuSans-69" transform="translate(659.082031 0.015625)"/>
     <use xlink:href="#DejaVuSans-6d" transform="translate(686.865234 0.015625)"/>
     <use xlink:href="#DejaVuSans-61" transform="translate(784.277344 0.015625)"/>
     <use xlink:href="#DejaVuSans-3a" transform="translate(845.556641 0.015625)"/>
     <use xlink:href="#DejaVuSans-20" transform="translate(879.248047 0.015625)"/>
     <use xlink:href="#DejaVuSans-30" transform="translate(911.035156 0.015625)"/>
     <use xlink:href="#DejaVuSans-2e" transform="translate(974.658203 0.015625)"/>
     <use xlink:href="#DejaVuSans-35" transform="translate(1006.445312 0.015625)"/>
     <use xlink:href="#DejaVuSans-Oblique-76" transform="translate(1070.068359 0.015625)"/>
     <use xlink:href="#DejaVuSans-31" transform="translate(1129.248047 -16.390625) scale(0.7)"/>
     <use xlink:href="#DejaVuSans-2b" transform="translate(1196.000977 0.015625)"/>
     <use xlink:href="#DejaVuSans-30" transform="translate(1299.272461 0.015625)"/>
     <use xlink:href="#DejaVuSans-2e" transform="translate(1362.895508 0.015625)"/>
     <use xlink:href="#DejaVuSans-35" transform="translate(1394.682617 0.015625)"/>
     <use xlink:href="#DejaVuSans-Oblique-76" transform="translate(1458.305664 0.015625)"/>
     <use xlink:href="#DejaVuSans-32" transform="translate(1517.485352 -16.390625) scale(0.7)"/>
     <use xlink:href="#DejaVuSans-3d" transform="translate(1584.238281 0.015625)"/>
     <use xlink:href="#DejaVuSans-35" transform="translate(1687.509766 0.015625)"/>
    </g>
   </g>
   <g id="PathCollection_3">
    <g clip-path="url(#p1fd6a7c8c9)">
     <use xlink:href="#m77ac99bad9" x="403.606356" y="286.63119" style="fill: #2563eb; stroke: #2563eb"/>
     <use xlink:href="#m77ac99bad9" x="549.195641" y="286.63119" style="fill: #2563eb; stroke: #2563eb"/>
     <use xlink:href="#m77ac99bad9" x="549.195641" y="189.571667" style="fill: #2563eb; stroke: #2563eb"/>
     <use xlink:href="#m77ac99bad9" x="452.136118" y="92.512143" style="fill: #2563eb; stroke: #2563eb"/>
     <use xlink:href="#m77ac99bad9" x="403.606356" y="92.512143" style="fill: #2563eb; stroke: #2563eb"/>
    </g>
   </g>
   <g id="PathCollection_4">
    <defs>
     <path id="m2c8731cde7" d="M 0 4.472136
C 1.186024 4.472136 2.323632 4.000923 3.162278 3.162278
C 4.000923 2.323632 4.472136 1.186024 4.472136 0
C 4.472136 -1.186024 4.000923 -2.323632 3.162278 -3.162278
C 2.323632 -4.000923 1.186024 -4.472136 0 -4.472136
C -1.186024 -4.472136 -2.323632 -4.000923 -3.162278 -3.162278
C -4.000923 -2.323632 -4.472136 -1.186024 -4.472136 0
C -4.472136 1.186024 -4.000923 2.323632 -3.162278 3.162278
C -2.323632 4.000923 -1.186024 4.472136 0 4.472136
z
" style="stroke: #ffffff"/>
    </defs>
    <g clip-path="url(#p1fd6a7c8c9)">
     <use xlink:href="#m2c8731cde7" x="549.195641" y="189.571667" style="fill: #ea580c; stroke: #ffffff"/>
     <use xlink:href="#m2c8731cde7" x="452.136118" y="92.512143" style="fill: #ea580c; stroke: #ffffff"/>
    </g>
   </g>
  </g>
  <g id="text_22">
   <!-- Linear programming geometry: feasible polygon and objective lines -->
   <g transform="translate(101.60663 16.318125) scale(0.12 -0.12)">
    <defs>
     <path id="DejaVuSans-66" d="M 2375 4863
L 2375 4384
L 1825 4384
Q 1516 4384 1395 4259
Q 1275 4134 1275 3809
L 1275 3500
L 2222 3500
L 2222 3053
L 1275 3053
L 1275 0
L 697 0
L 697 3053
L 147 3053
L 147 3500
L 697 3500
L 697 3744
Q 697 4328 969 4595
Q 1241 4863 1831 4863
L 2375 4863
z
" transform="scale(0.015625)"/>
     <path id="DejaVuSans-62" d="M 3116 1747
Q 3116 2381 2855 2742
Q 2594 3103 2138 3103
Q 1681 3103 1420 2742
Q 1159 2381 1159 1747
Q 1159 1113 1420 752
Q 1681 391 2138 391
Q 2594 391 2855 752
Q 3116 1113 3116 1747
z
M 1159 2969
Q 1341 3281 1617 3432
Q 1894 3584 2278 3584
Q 2916 3584 3314 3078
Q 3713 2572 3713 1747
Q 3713 922 3314 415
Q 2916 -91 2278 -91
Q 1894 -91 1617 61
Q 1341 213 1159 525
L 1159 0
L 581 0
L 581 4863
L 1159 4863
L 1159 2969
z
" transform="scale(0.015625)"/>
     <path id="DejaVuSans-6a" d="M 603 3500
L 1178 3500
L 1178 -63
Q 1178 -731 923 -1031
Q 669 -1331 103 -1331
L -116 -1331
L -116 -844
L 38 -844
Q 366 -844 484 -692
Q 603 -541 603 -63
L 603 3500
z
M 603 4863
L 1178 4863
L 1178 4134
L 603 4134
L 603 4863
z
" transform="scale(0.015625)"/>
     <path id="DejaVuSans-63" d="M 3122 3366
L 3122 2828
Q 2878 2963 2633 3030
Q 2388 3097 2138 3097
Q 1578 3097 1268 2742
Q 959 2388 959 1747
Q 959 1106 1268 751
Q 1578 397 2138 397
Q 2388 397 2633 464
Q 2878 531 3122 666
L 3122 134
Q 2881 22 2623 -34
Q 2366 -91 2075 -91
Q 1284 -91 818 406
Q 353 903 353 1747
Q 353 2603 823 3093
Q 1294 3584 2113 3584
Q 2378 3584 2631 3529
Q 2884 3475 3122 3366
z
" transform="scale(0.015625)"/>
    </defs>
    <use xlink:href="#DejaVuSans-4c"/>
    <use xlink:href="#DejaVuSans-69" x="55.712891"/>
    <use xlink:href="#DejaVuSans-6e" x="83.496094"/>
    <use xlink:href="#DejaVuSans-65" x="146.875"/>
    <use xlink:href="#DejaVuSans-61" x="208.398438"/>
    <use xlink:href="#DejaVuSans-72" x="269.677734"/>
    <use xlink:href="#DejaVuSans-20" x="310.791016"/>
    <use xlink:href="#DejaVuSans-70" x="342.578125"/>
    <use xlink:href="#DejaVuSans-72" x="406.054688"/>
    <use xlink:href="#DejaVuSans-6f" x="444.917969"/>
    <use xlink:href="#DejaVuSans-67" x="506.099609"/>
    <use xlink:href="#DejaVuSans-72" x="569.576172"/>
    <use xlink:href="#DejaVuSans-61" x="610.689453"/>
    <use xlink:href="#DejaVuSans-6d" x="671.96875"/>
    <use xlink:href="#DejaVuSans-6d" x="769.380859"/>
    <use xlink:href="#DejaVuSans-69" x="866.792969"/>
    <use xlink:href="#DejaVuSans-6e" x="894.576172"/>
    <use xlink:href="#DejaVuSans-67" x="957.955078"/>
    <use xlink:href="#DejaVuSans-20" x="1021.431641"/>
    <use xlink:href="#DejaVuSans-67" x="1053.21875"/>
    <use xlink:href="#DejaVuSans-65" x="1116.695312"/>
    <use xlink:href="#DejaVuSans-6f" x="1178.21875"/>
    <use xlink:href="#DejaVuSans-6d" x="1239.400391"/>
    <use xlink:href="#DejaVuSans-65" x="1336.8125"/>
    <use xlink:href="#DejaVuSans-74" x="1398.335938"/>
    <use xlink:href="#DejaVuSans-72" x="1437.544922"/>
    <use xlink:href="#DejaVuSans-79" x="1478.658203"/>
    <use xlink:href="#DejaVuSans-3a" x="1530.587891"/>
    <use xlink:href="#DejaVuSans-20" x="1564.279297"/>
    <use xlink:href="#DejaVuSans-66" x="1596.066406"/>
    <use xlink:href="#DejaVuSans-65" x="1631.271484"/>
    <use xlink:href="#DejaVuSans-61" x="1692.794922"/>
    <use xlink:href="#DejaVuSans-73" x="1754.074219"/>
    <use xlink:href="#DejaVuSans-69" x="1806.173828"/>
    <use xlink:href="#DejaVuSans-62" x="1833.957031"/>
    <use xlink:href="#DejaVuSans-6c" x="1897.433594"/>
    <use xlink:href="#DejaVuSans-65" x="1925.216797"/>
    <use xlink:href="#DejaVuSans-20" x="1986.740234"/>
    <use xlink:href="#DejaVuSans-70" x="2018.527344"/>
    <use xlink:href="#DejaVuSans-6f" x="2082.003906"/>
    <use xlink:href="#DejaVuSans-6c" x="2143.185547"/>
    <use xlink:href="#DejaVuSans-79" x="2170.96875"/>
    <use xlink:href="#DejaVuSans-67" x="2230.148438"/>
    <use xlink:href="#DejaVuSans-6f" x="2293.625"/>
    <use xlink:href="#DejaVuSans-6e" x="2354.806641"/>
    <use xlink:href="#DejaVuSans-20" x="2418.185547"/>
    <use xlink:href="#DejaVuSans-61" x="2449.972656"/>
    <use xlink:href="#DejaVuSans-6e" x="2511.251953"/>
    <use xlink:href="#DejaVuSans-64" x="2574.630859"/>
    <use xlink:href="#DejaVuSans-20" x="2638.107422"/>
    <use xlink:href="#DejaVuSans-6f" x="2669.894531"/>
    <use xlink:href="#DejaVuSans-62" x="2731.076172"/>
    <use xlink:href="#DejaVuSans-6a" x="2794.552734"/>
    <use xlink:href="#DejaVuSans-65" x="2822.335938"/>
    <use xlink:href="#DejaVuSans-63" x="2883.859375"/>
    <use xlink:href="#DejaVuSans-74" x="2938.839844"/>
    <use xlink:href="#DejaVuSans-69" x="2978.048828"/>
    <use xlink:href="#DejaVuSans-76" x="3005.832031"/>
    <use xlink:href="#DejaVuSans-65" x="3065.011719"/>
    <use xlink:href="#DejaVuSans-20" x="3126.535156"/>
    <use xlink:href="#DejaVuSans-6c" x="3158.322266"/>
    <use xlink:href="#DejaVuSans-69" x="3186.105469"/>
    <use xlink:href="#DejaVuSans-6e" x="3213.888672"/>
    <use xlink:href="#DejaVuSans-65" x="3277.267578"/>
    <use xlink:href="#DejaVuSans-73" x="3338.791016"/>
   </g>
  </g>
 </g>
 <defs>
  <clipPath id="p96f4e85c55">
   <rect x="34.240625" y="63.394286" width="181.986607" height="232.942857"/>
  </clipPath>
  <clipPath id="p1fd6a7c8c9">
   <rect x="393.900403" y="63.394286" width="181.986607" height="232.942857"/>
  </clipPath>
 </defs>
</svg>
