<?xml version="1.0" encoding="utf-8" standalone="no"?>
<!DOCTYPE svg PUBLIC "-//W3C//DTD SVG 1.1//EN"
  "http://www.w3.org/Graphics/SVG/1.1/DTD/svg11.dtd">
<svg xmlns:xlink="http://www.w3.org/1999/xlink" width="417.068482pt" height="422.777232pt" viewBox="0 0 417.068482 422.777232" xmlns="http://www.w3.org/2000/svg" version="1.1">
 <metadata>
  <rdf:RDF xmlns:dc="http://purl.org/dc/elements/1.1/" xmlns:cc="http://creativecommons.org/ns#" xmlns:rdf="http://www.w3.org/1999/02/22-rdf-syntax-ns#">
   <cc:Work>
    <dc:type rdf:resource="http://purl.org/dc/dcmitype/StillImage"/>
    <dc:date>2026-07-10</dc:date>
    <dc:format>image/svg+xml</dc:format>
    <dc:creator>
     <cc:Agent>
      <dc:title>generate_optimization_figures.py</dc:title>
     </cc:Agent>
    </dc:creator>
   </cc:Work>
  </rdf:RDF>
 </metadata>
 <defs>
  <style type="text/css">*{stroke-linejoin: round; stroke-linecap: butt}</style>
 </defs>
 <g id="figure_1">
  <g id="patch_1">
   <path d="M 0 422.777232
L 417.068482 422.777232
L 417.068482 0
L 0 0
z
" style="fill: #ffffff"/>
  </g>
  <g id="axes_1">
   <g id="patch_2">
    <path d="M 40.603125 385.220982
L 403.505982 385.220982
L 403.505982 22.318125
L 40.603125 22.318125
z
" style="fill: #ffffff"/>
   </g>
   <g id="patch_3">
    <path d="M 54.560927 371.26318
L 263.92796 371.26318
L 263.92796 301.474169
L 124.349938 161.896147
L 54.560927 161.896147
z
" clip-path="url(#pfeaa82b00c)" style="fill: #dbeafe; stroke: #2563eb; stroke-width: 2; stroke-linejoin: miter"/>
   </g>
   <g id="patch_4">
    <path d="M 298.822466 275.04649
C 338.084418 275.04649 375.743589 259.447551 403.505982 231.685158
C 431.268375 203.922765 446.867314 166.263594 446.867314 127.001641
C 446.867314 87.739689 431.268375 50.080518 403.505982 22.318125
C 375.743589 -5.444268 338.084418 -21.043207 298.822466 -21.043207
C 259.560513 -21.043207 221.901342 -5.444268 194.138949 22.318125
C 166.376556 50.080518 150.777617 87.739689 150.777617 127.001641
C 150.777617 166.263594 166.376556 203.922765 194.138949 231.685158
C 221.901342 259.447551 259.560513 275.04649 298.822466 275.04649
L 298.822466 275.04649
z
" clip-path="url(#pfeaa82b00c)" style="fill: none; opacity: 0.22; stroke: #7c3aed; stroke-width: 1.5; stroke-linejoin: miter"/>
   </g>
   <g id="patch_5">
    <path d="M 298.822466 301.474169
C 345.093121 301.474169 389.474879 283.090643 422.193173 250.372349
C 454.911467 217.654055 473.294993 173.272297 473.294993 127.001641
C 473.294993 80.730986 454.911467 36.349228 422.193173 3.630934
C 389.474879 -29.08736 345.093121 -47.470886 298.822466 -47.470886
C 252.551811 -47.470886 208.170052 -29.08736 175.451758 3.630934
C 142.733464 36.349228 124.349938 80.730986 124.349938 127.001641
C 124.349938 173.272297 142.733464 217.654055 175.451758 250.372349
C 208.170052 283.090643 252.551811 301.474169 298.822466 301.474169
L 298.822466 301.474169
z
" clip-path="url(#pfeaa82b00c)" style="fill: none; opacity: 0.22; stroke: #7c3aed; stroke-width: 1.5; stroke-linejoin: miter"/>
   </g>
   <g id="patch_6">
    <path d="M 298.822466 353.815927
C 358.974317 353.815927 416.670603 329.917343 459.204385 287.383561
C 501.738167 244.849779 525.636751 187.153493 525.636751 127.001641
C 525.636751 66.84979 501.738167 9.153504 459.204385 -33.380278
C 416.670603 -75.91406 358.974317 -99.812644 298.822466 -99.812644
C 238.670614 -99.812644 180.974328 -75.91406 138.440546 -33.380278
C 95.906764 9.153504 72.00818 66.84979 72.00818 127.001641
C 72.00818 187.153493 95.906764 244.849779 138.440546 287.383561
C 180.974328 329.917343 238.670614 353.815927 298.822466 353.815927
L 298.822466 353.815927
z
" clip-path="url(#pfeaa82b00c)" style="fill: none; opacity: 0.22; stroke: #7c3aed; stroke-width: 1.5; stroke-linejoin: miter"/>
   </g>
   <g id="matplotlib.axis_1">
    <g id="xtick_1">
     <g id="line2d_1">
      <path d="M 54.560927 385.220982
L 54.560927 22.318125
" clip-path="url(#pfeaa82b00c)" style="fill: none; stroke: #b0b0b0; stroke-opacity: 0.15; stroke-width: 0.8; stroke-linecap: square"/>
     </g>
     <g id="line2d_2">
      <defs>
       <path id="m98b229d225" d="M 0 0
L 0 3.5
" style="stroke: #000000; stroke-width: 0.8"/>
      </defs>
      <g>
       <use xlink:href="#m98b229d225" x="54.560927" y="385.220982" style="stroke: #000000; stroke-width: 0.8"/>
      </g>
     </g>
     <g id="text_1">
      <!-- 0 -->
      <g transform="translate(51.379677 399.81942) scale(0.1 -0.1)">
       <defs>
        <path id="DejaVuSans-30" d="M 2034 4250
Q 1547 4250 1301 3770
Q 1056 3291 1056 2328
Q 1056 1369 1301 889
Q 1547 409 2034 409
Q 2525 409 2770 889
Q 3016 1369 3016 2328
Q 3016 3291 2770 3770
Q 2525 4250 2034 4250
z
M 2034 4750
Q 2819 4750 3233 4129
Q 3647 3509 3647 2328
Q 3647 1150 3233 529
Q 2819 -91 2034 -91
Q 1250 -91 836 529
Q 422 1150 422 2328
Q 422 3509 836 4129
Q 1250 4750 2034 4750
z
" transform="scale(0.015625)"/>
       </defs>
       <use xlink:href="#DejaVuSans-30"/>
      </g>
     </g>
    </g>
    <g id="xtick_2">
     <g id="line2d_3">
      <path d="M 124.349938 385.220982
L 124.349938 22.318125
" clip-path="url(#pfeaa82b00c)" style="fill: none; stroke: #b0b0b0; stroke-opacity: 0.15; stroke-width: 0.8; stroke-linecap: square"/>
     </g>
     <g id="line2d_4">
      <g>
       <use xlink:href="#m98b229d225" x="124.349938" y="385.220982" style="stroke: #000000; stroke-width: 0.8"/>
      </g>
     </g>
     <g id="text_2">
      <!-- 2 -->
      <g transform="translate(121.168688 399.81942) scale(0.1 -0.1)">
       <defs>
        <path id="DejaVuSans-32" d="M 1228 531
L 3431 531
L 3431 0
L 469 0
L 469 531
Q 828 903 1448 1529
Q 2069 2156 2228 2338
Q 2531 2678 2651 2914
Q 2772 3150 2772 3378
Q 2772 3750 2511 3984
Q 2250 4219 1831 4219
Q 1534 4219 1204 4116
Q 875 4013 500 3803
L 500 4441
Q 881 4594 1212 4672
Q 1544 4750 1819 4750
Q 2544 4750 2975 4387
Q 3406 4025 3406 3419
Q 3406 3131 3298 2873
Q 3191 2616 2906 2266
Q 2828 2175 2409 1742
Q 1991 1309 1228 531
z
" transform="scale(0.015625)"/>
       </defs>
       <use xlink:href="#DejaVuSans-32"/>
      </g>
     </g>
    </g>
    <g id="xtick_3">
     <g id="line2d_5">
      <path d="M 194.138949 385.220982
L 194.138949 22.318125
" clip-path="url(#pfeaa82b00c)" style="fill: none; stroke: #b0b0b0; stroke-opacity: 0.15; stroke-width: 0.8; stroke-linecap: square"/>
     </g>
     <g id="line2d_6">
      <g>
       <use xlink:href="#m98b229d225" x="194.138949" y="385.220982" style="stroke: #000000; stroke-width: 0.8"/>
      </g>
     </g>
     <g id="text_3">
      <!-- 4 -->
      <g transform="translate(190.957699 399.81942) scale(0.1 -0.1)">
       <defs>
        <path id="DejaVuSans-34" d="M 2419 4116
L 825 1625
L 2419 1625
L 2419 4116
z
M 2253 4666
L 3047 4666
L 3047 1625
L 3713 1625
L 3713 1100
L 3047 1100
L 3047 0
L 2419 0
L 2419 1100
L 313 1100
L 313 1709
L 2253 4666
z
" transform="scale(0.015625)"/>
       </defs>
       <use xlink:href="#DejaVuSans-34"/>
      </g>
     </g>
    </g>
    <g id="xtick_4">
     <g id="line2d_7">
      <path d="M 263.92796 385.220982
L 263.92796 22.318125
" clip-path="url(#pfeaa82b00c)" style="fill: none; stroke: #b0b0b0; stroke-opacity: 0.15; stroke-width: 0.8; stroke-linecap: square"/>
     </g>
     <g id="line2d_8">
      <g>
       <use xlink:href="#m98b229d225" x="263.92796" y="385.220982" style="stroke: #000000; stroke-width: 0.8"/>
      </g>
     </g>
     <g id="text_4">
      <!-- 6 -->
      <g transform="translate(260.74671 399.81942) scale(0.1 -0.1)">
       <defs>
        <path id="DejaVuSans-36" d="M 2113 2584
Q 1688 2584 1439 2293
Q 1191 2003 1191 1497
Q 1191 994 1439 701
Q 1688 409 2113 409
Q 2538 409 2786 701
Q 3034 994 3034 1497
Q 3034 2003 2786 2293
Q 2538 2584 2113 2584
z
M 3366 4563
L 3366 3988
Q 3128 4100 2886 4159
Q 2644 4219 2406 4219
Q 1781 4219 1451 3797
Q 1122 3375 1075 2522
Q 1259 2794 1537 2939
Q 1816 3084 2150 3084
Q 2853 3084 3261 2657
Q 3669 2231 3669 1497
Q 3669 778 3244 343
Q 2819 -91 2113 -91
Q 1303 -91 875 529
Q 447 1150 447 2328
Q 447 3434 972 4092
Q 1497 4750 2381 4750
Q 2619 4750 2861 4703
Q 3103 4656 3366 4563
z
" transform="scale(0.015625)"/>
       </defs>
       <use xlink:href="#DejaVuSans-36"/>
      </g>
     </g>
    </g>
    <g id="xtick_5">
     <g id="line2d_9">
      <path d="M 333.716971 385.220982
L 333.716971 22.318125
" clip-path="url(#pfeaa82b00c)" style="fill: none; stroke: #b0b0b0; stroke-opacity: 0.15; stroke-width: 0.8; stroke-linecap: square"/>
     </g>
     <g id="line2d_10">
      <g>
       <use xlink:href="#m98b229d225" x="333.716971" y="385.220982" style="stroke: #000000; stroke-width: 0.8"/>
      </g>
     </g>
     <g id="text_5">
      <!-- 8 -->
      <g transform="translate(330.535721 399.81942) scale(0.1 -0.1)">
       <defs>
        <path id="DejaVuSans-38" d="M 2034 2216
Q 1584 2216 1326 1975
Q 1069 1734 1069 1313
Q 1069 891 1326 650
Q 1584 409 2034 409
Q 2484 409 2743 651
Q 3003 894 3003 1313
Q 3003 1734 2745 1975
Q 2488 2216 2034 2216
z
M 1403 2484
Q 997 2584 770 2862
Q 544 3141 544 3541
Q 544 4100 942 4425
Q 1341 4750 2034 4750
Q 2731 4750 3128 4425
Q 3525 4100 3525 3541
Q 3525 3141 3298 2862
Q 3072 2584 2669 2484
Q 3125 2378 3379 2068
Q 3634 1759 3634 1313
Q 3634 634 3220 271
Q 2806 -91 2034 -91
Q 1263 -91 848 271
Q 434 634 434 1313
Q 434 1759 690 2068
Q 947 2378 1403 2484
z
M 1172 3481
Q 1172 3119 1398 2916
Q 1625 2713 2034 2713
Q 2441 2713 2670 2916
Q 2900 3119 2900 3481
Q 2900 3844 2670 4047
Q 2441 4250 2034 4250
Q 1625 4250 1398 4047
Q 1172 3844 1172 3481
z
" transform="scale(0.015625)"/>
       </defs>
       <use xlink:href="#DejaVuSans-38"/>
      </g>
     </g>
    </g>
    <g id="xtick_6">
     <g id="line2d_11">
      <path d="M 403.505982 385.220982
L 403.505982 22.318125
" clip-path="url(#pfeaa82b00c)" style="fill: none; stroke: #b0b0b0; stroke-opacity: 0.15; stroke-width: 0.8; stroke-linecap: square"/>
     </g>
     <g id="line2d_12">
      <g>
       <use xlink:href="#m98b229d225" x="403.505982" y="385.220982" style="stroke: #000000; stroke-width: 0.8"/>
      </g>
     </g>
     <g id="text_6">
      <!-- 10 -->
      <g transform="translate(397.143482 399.81942) scale(0.1 -0.1)">
       <defs>
        <path id="DejaVuSans-31" d="M 794 531
L 1825 531
L 1825 4091
L 703 3866
L 703 4441
L 1819 4666
L 2450 4666
L 2450 531
L 3481 531
L 3481 0
L 794 0
L 794 531
z
" transform="scale(0.015625)"/>
       </defs>
       <use xlink:href="#DejaVuSans-31"/>
       <use xlink:href="#DejaVuSans-30" x="63.623047"/>
      </g>
     </g>
    </g>
    <g id="text_7">
     <!-- flux coordinate $v_1$ -->
     <g transform="translate(177.504554 413.497545) scale(0.1 -0.1)">
      <defs>
       <path id="DejaVuSans-66" d="M 2375 4863
L 2375 4384
L 1825 4384
Q 1516 4384 1395 4259
Q 1275 4134 1275 3809
L 1275 3500
L 2222 3500
L 2222 3053
L 1275 3053
L 1275 0
L 697 0
L 697 3053
L 147 3053
L 147 3500
L 697 3500
L 697 3744
Q 697 4328 969 4595
Q 1241 4863 1831 4863
L 2375 4863
z
" transform="scale(0.015625)"/>
       <path id="DejaVuSans-6c" d="M 603 4863
L 1178 4863
L 1178 0
L 603 0
L 603 4863
z
" transform="scale(0.015625)"/>
       <path id="DejaVuSans-75" d="M 544 1381
L 544 3500
L 1119 3500
L 1119 1403
Q 1119 906 1312 657
Q 1506 409 1894 409
Q 2359 409 2629 706
Q 2900 1003 2900 1516
L 2900 3500
L 3475 3500
L 3475 0
L 2900 0
L 2900 538
Q 2691 219 2414 64
Q 2138 -91 1772 -91
Q 1169 -91 856 284
Q 544 659 544 1381
z
M 1991 3584
L 1991 3584
z
" transform="scale(0.015625)"/>
       <path id="DejaVuSans-78" d="M 3513 3500
L 2247 1797
L 3578 0
L 2900 0
L 1881 1375
L 863 0
L 184 0
L 1544 1831
L 300 3500
L 978 3500
L 1906 2253
L 2834 3500
L 3513 3500
z
" transform="scale(0.015625)"/>
       <path id="DejaVuSans-20" transform="scale(0.015625)"/>
       <path id="DejaVuSans-63" d="M 3122 3366
L 3122 2828
Q 2878 2963 2633 3030
Q 2388 3097 2138 3097
Q 1578 3097 1268 2742
Q 959 2388 959 1747
Q 959 1106 1268 751
Q 1578 397 2138 397
Q 2388 397 2633 464
Q 2878 531 3122 666
L 3122 134
Q 2881 22 2623 -34
Q 2366 -91 2075 -91
Q 1284 -91 818 406
Q 353 903 353 1747
Q 353 2603 823 3093
Q 1294 3584 2113 3584
Q 2378 3584 2631 3529
Q 2884 3475 3122 3366
z
" transform="scale(0.015625)"/>
       <path id="DejaVuSans-6f" d="M 1959 3097
Q 1497 3097 1228 2736
Q 959 2375 959 1747
Q 959 1119 1226 758
Q 1494 397 1959 397
Q 2419 397 2687 759
Q 2956 1122 2956 1747
Q 2956 2369 2687 2733
Q 2419 3097 1959 3097
z
M 1959 3584
Q 2709 3584 3137 3096
Q 3566 2609 3566 1747
Q 3566 888 3137 398
Q 2709 -91 1959 -91
Q 1206 -91 779 398
Q 353 888 353 1747
Q 353 2609 779 3096
Q 1206 3584 1959 3584
z
" transform="scale(0.015625)"/>
       <path id="DejaVuSans-72" d="M 2631 2963
Q 2534 3019 2420 3045
Q 2306 3072 2169 3072
Q 1681 3072 1420 2755
Q 1159 2438 1159 1844
L 1159 0
L 581 0
L 581 3500
L 1159 3500
L 1159 2956
Q 1341 3275 1631 3429
Q 1922 3584 2338 3584
Q 2397 3584 2469 3576
Q 2541 3569 2628 3553
L 2631 2963
z
" transform="scale(0.015625)"/>
       <path id="DejaVuSans-64" d="M 2906 2969
L 2906 4863
L 3481 4863
L 3481 0
L 2906 0
L 2906 525
Q 2725 213 2448 61
Q 2172 -91 1784 -91
Q 1150 -91 751 415
Q 353 922 353 1747
Q 353 2572 751 3078
Q 1150 3584 1784 3584
Q 2172 3584 2448 3432
Q 2725 3281 2906 2969
z
M 947 1747
Q 947 1113 1208 752
Q 1469 391 1925 391
Q 2381 391 2643 752
Q 2906 1113 2906 1747
Q 2906 2381 2643 2742
Q 2381 3103 1925 3103
Q 1469 3103 1208 2742
Q 947 2381 947 1747
z
" transform="scale(0.015625)"/>
       <path id="DejaVuSans-69" d="M 603 3500
L 1178 3500
L 1178 0
L 603 0
L 603 3500
z
M 603 4863
L 1178 4863
L 1178 4134
L 603 4134
L 603 4863
z
" transform="scale(0.015625)"/>
       <path id="DejaVuSans-6e" d="M 3513 2113
L 3513 0
L 2938 0
L 2938 2094
Q 2938 2591 2744 2837
Q 2550 3084 2163 3084
Q 1697 3084 1428 2787
Q 1159 2491 1159 1978
L 1159 0
L 581 0
L 581 3500
L 1159 3500
L 1159 2956
Q 1366 3272 1645 3428
Q 1925 3584 2291 3584
Q 2894 3584 3203 3211
Q 3513 2838 3513 2113
z
" transform="scale(0.015625)"/>
       <path id="DejaVuSans-61" d="M 2194 1759
Q 1497 1759 1228 1600
Q 959 1441 959 1056
Q 959 750 1161 570
Q 1363 391 1709 391
Q 2188 391 2477 730
Q 2766 1069 2766 1631
L 2766 1759
L 2194 1759
z
M 3341 1997
L 3341 0
L 2766 0
L 2766 531
Q 2569 213 2275 61
Q 1981 -91 1556 -91
Q 1019 -91 701 211
Q 384 513 384 1019
Q 384 1609 779 1909
Q 1175 2209 1959 2209
L 2766 2209
L 2766 2266
Q 2766 2663 2505 2880
Q 2244 3097 1772 3097
Q 1472 3097 1187 3025
Q 903 2953 641 2809
L 641 3341
Q 956 3463 1253 3523
Q 1550 3584 1831 3584
Q 2591 3584 2966 3190
Q 3341 2797 3341 1997
z
" transform="scale(0.015625)"/>
       <path id="DejaVuSans-74" d="M 1172 4494
L 1172 3500
L 2356 3500
L 2356 3053
L 1172 3053
L 1172 1153
Q 1172 725 1289 603
Q 1406 481 1766 481
L 2356 481
L 2356 0
L 1766 0
Q 1100 0 847 248
Q 594 497 594 1153
L 594 3053
L 172 3053
L 172 3500
L 594 3500
L 594 4494
L 1172 4494
z
" transform="scale(0.015625)"/>
       <path id="DejaVuSans-65" d="M 3597 1894
L 3597 1613
L 953 1613
Q 991 1019 1311 708
Q 1631 397 2203 397
Q 2534 397 2845 478
Q 3156 559 3463 722
L 3463 178
Q 3153 47 2828 -22
Q 2503 -91 2169 -91
Q 1331 -91 842 396
Q 353 884 353 1716
Q 353 2575 817 3079
Q 1281 3584 2069 3584
Q 2775 3584 3186 3129
Q 3597 2675 3597 1894
z
M 3022 2063
Q 3016 2534 2758 2815
Q 2500 3097 2075 3097
Q 1594 3097 1305 2825
Q 1016 2553 972 2059
L 3022 2063
z
" transform="scale(0.015625)"/>
       <path id="DejaVuSans-Oblique-76" d="M 459 3500
L 1069 3500
L 1581 525
L 3256 3500
L 3866 3500
L 1875 0
L 1100 0
L 459 3500
z
" transform="scale(0.015625)"/>
      </defs>
      <use xlink:href="#DejaVuSans-66" transform="translate(0 0.015625)"/>
      <use xlink:href="#DejaVuSans-6c" transform="translate(35.205078 0.015625)"/>
      <use xlink:href="#DejaVuSans-75" transform="translate(62.988281 0.015625)"/>
      <use xlink:href="#DejaVuSans-78" transform="translate(126.367188 0.015625)"/>
      <use xlink:href="#DejaVuSans-20" transform="translate(185.546875 0.015625)"/>
      <use xlink:href="#DejaVuSans-63" transform="translate(217.333984 0.015625)"/>
      <use xlink:href="#DejaVuSans-6f" transform="translate(272.314453 0.015625)"/>
      <use xlink:href="#DejaVuSans-6f" transform="translate(333.496094 0.015625)"/>
      <use xlink:href="#DejaVuSans-72" transform="translate(394.677734 0.015625)"/>
      <use xlink:href="#DejaVuSans-64" transform="translate(435.791016 0.015625)"/>
      <use xlink:href="#DejaVuSans-69" transform="translate(499.267578 0.015625)"/>
      <use xlink:href="#DejaVuSans-6e" transform="translate(527.050781 0.015625)"/>
      <use xlink:href="#DejaVuSans-61" transform="translate(590.429688 0.015625)"/>
      <use xlink:href="#DejaVuSans-74" transform="translate(651.708984 0.015625)"/>
      <use xlink:href="#DejaVuSans-65" transform="translate(690.917969 0.015625)"/>
      <use xlink:href="#DejaVuSans-20" transform="translate(752.441406 0.015625)"/>
      <use xlink:href="#DejaVuSans-Oblique-76" transform="translate(784.228516 0.015625)"/>
      <use xlink:href="#DejaVuSans-31" transform="translate(843.408203 -16.390625) scale(0.7)"/>
     </g>
    </g>
   </g>
   <g id="matplotlib.axis_2">
    <g id="ytick_1">
     <g id="line2d_13">
      <path d="M 40.603125 371.26318
L 403.505982 371.26318
" clip-path="url(#pfeaa82b00c)" style="fill: none; stroke: #b0b0b0; stroke-opacity: 0.15; stroke-width: 0.8; stroke-linecap: square"/>
     </g>
     <g id="line2d_14">
      <defs>
       <path id="mc9740bd8ad" d="M 0 0
L -3.5 0
" style="stroke: #000000; stroke-width: 0.8"/>
      </defs>
      <g>
       <use xlink:href="#mc9740bd8ad" x="40.603125" y="371.26318" style="stroke: #000000; stroke-width: 0.8"/>
      </g>
     </g>
     <g id="text_8">
      <!-- 0 -->
      <g transform="translate(27.240625 375.062399) scale(0.1 -0.1)">
       <use xlink:href="#DejaVuSans-30"/>
      </g>
     </g>
    </g>
    <g id="ytick_2">
     <g id="line2d_15">
      <path d="M 40.603125 301.474169
L 403.505982 301.474169
" clip-path="url(#pfeaa82b00c)" style="fill: none; stroke: #b0b0b0; stroke-opacity: 0.15; stroke-width: 0.8; stroke-linecap: square"/>
     </g>
     <g id="line2d_16">
      <g>
       <use xlink:href="#mc9740bd8ad" x="40.603125" y="301.474169" style="stroke: #000000; stroke-width: 0.8"/>
      </g>
     </g>
     <g id="text_9">
      <!-- 2 -->
      <g transform="translate(27.240625 305.273388) scale(0.1 -0.1)">
       <use xlink:href="#DejaVuSans-32"/>
      </g>
     </g>
    </g>
    <g id="ytick_3">
     <g id="line2d_17">
      <path d="M 40.603125 231.685158
L 403.505982 231.685158
" clip-path="url(#pfeaa82b00c)" style="fill: none; stroke: #b0b0b0; stroke-opacity: 0.15; stroke-width: 0.8; stroke-linecap: square"/>
     </g>
     <g id="line2d_18">
      <g>
       <use xlink:href="#mc9740bd8ad" x="40.603125" y="231.685158" style="stroke: #000000; stroke-width: 0.8"/>
      </g>
     </g>
     <g id="text_10">
      <!-- 4 -->
      <g transform="translate(27.240625 235.484377) scale(0.1 -0.1)">
       <use xlink:href="#DejaVuSans-34"/>
      </g>
     </g>
    </g>
    <g id="ytick_4">
     <g id="line2d_19">
      <path d="M 40.603125 161.896147
L 403.505982 161.896147
" clip-path="url(#pfeaa82b00c)" style="fill: none; stroke: #b0b0b0; stroke-opacity: 0.15; stroke-width: 0.8; stroke-linecap: square"/>
     </g>
     <g id="line2d_20">
      <g>
       <use xlink:href="#mc9740bd8ad" x="40.603125" y="161.896147" style="stroke: #000000; stroke-width: 0.8"/>
      </g>
     </g>
     <g id="text_11">
      <!-- 6 -->
      <g transform="translate(27.240625 165.695366) scale(0.1 -0.1)">
       <use xlink:href="#DejaVuSans-36"/>
      </g>
     </g>
    </g>
    <g id="ytick_5">
     <g id="line2d_21">
      <path d="M 40.603125 92.107136
L 403.505982 92.107136
" clip-path="url(#pfeaa82b00c)" style="fill: none; stroke: #b0b0b0; stroke-opacity: 0.15; stroke-width: 0.8; stroke-linecap: square"/>
     </g>
     <g id="line2d_22">
      <g>
       <use xlink:href="#mc9740bd8ad" x="40.603125" y="92.107136" style="stroke: #000000; stroke-width: 0.8"/>
      </g>
     </g>
     <g id="text_12">
      <!-- 8 -->
      <g transform="translate(27.240625 95.906355) scale(0.1 -0.1)">
       <use xlink:href="#DejaVuSans-38"/>
      </g>
     </g>
    </g>
    <g id="ytick_6">
     <g id="line2d_23">
      <path d="M 40.603125 22.318125
L 403.505982 22.318125
" clip-path="url(#pfeaa82b00c)" style="fill: none; stroke: #b0b0b0; stroke-opacity: 0.15; stroke-width: 0.8; stroke-linecap: square"/>
     </g>
     <g id="line2d_24">
      <g>
       <use xlink:href="#mc9740bd8ad" x="40.603125" y="22.318125" style="stroke: #000000; stroke-width: 0.8"/>
      </g>
     </g>
     <g id="text_13">
      <!-- 10 -->
      <g transform="translate(20.878125 26.117344) scale(0.1 -0.1)">
       <use xlink:href="#DejaVuSans-31"/>
       <use xlink:href="#DejaVuSans-30" x="63.623047"/>
      </g>
     </g>
    </g>
    <g id="text_14">
     <!-- flux coordinate $v_2$ -->
     <g transform="translate(14.798438 248.319554) rotate(-90) scale(0.1 -0.1)">
      <use xlink:href="#DejaVuSans-66" transform="translate(0 0.015625)"/>
      <use xlink:href="#DejaVuSans-6c" transform="translate(35.205078 0.015625)"/>
      <use xlink:href="#DejaVuSans-75" transform="translate(62.988281 0.015625)"/>
      <use xlink:href="#DejaVuSans-78" transform="translate(126.367188 0.015625)"/>
      <use xlink:href="#DejaVuSans-20" transform="translate(185.546875 0.015625)"/>
      <use xlink:href="#DejaVuSans-63" transform="translate(217.333984 0.015625)"/>
      <use xlink:href="#DejaVuSans-6f" transform="translate(272.314453 0.015625)"/>
      <use xlink:href="#DejaVuSans-6f" transform="translate(333.496094 0.015625)"/>
      <use xlink:href="#DejaVuSans-72" transform="translate(394.677734 0.015625)"/>
      <use xlink:href="#DejaVuSans-64" transform="translate(435.791016 0.015625)"/>
      <use xlink:href="#DejaVuSans-69" transform="translate(499.267578 0.015625)"/>
      <use xlink:href="#DejaVuSans-6e" transform="translate(527.050781 0.015625)"/>
      <use xlink:href="#DejaVuSans-61" transform="translate(590.429688 0.015625)"/>
      <use xlink:href="#DejaVuSans-74" transform="translate(651.708984 0.015625)"/>
      <use xlink:href="#DejaVuSans-65" transform="translate(690.917969 0.015625)"/>
      <use xlink:href="#DejaVuSans-20" transform="translate(752.441406 0.015625)"/>
      <use xlink:href="#DejaVuSans-Oblique-76" transform="translate(784.228516 0.015625)"/>
      <use xlink:href="#DejaVuSans-32" transform="translate(843.408203 -16.390625) scale(0.7)"/>
     </g>
    </g>
   </g>
   <g id="line2d_25">
    <path d="M 298.822466 127.001641
L 194.138949 231.685158
" clip-path="url(#pfeaa82b00c)" style="fill: none; stroke-dasharray: 7.4,3.2; stroke-dashoffset: 0; stroke: #ea580c; stroke-width: 2"/>
   </g>
   <g id="patch_7">
    <path d="M 40.603125 385.220982
L 40.603125 22.318125
" style="fill: none; stroke: #000000; stroke-width: 0.8; stroke-linejoin: miter; stroke-linecap: square"/>
   </g>
   <g id="patch_8">
    <path d="M 403.505982 385.220982
L 403.505982 22.318125
" style="fill: none; stroke: #000000; stroke-width: 0.8; stroke-linejoin: miter; stroke-linecap: square"/>
   </g>
   <g id="patch_9">
    <path d="M 40.603125 385.220982
L 403.505982 385.220982
" style="fill: none; stroke: #000000; stroke-width: 0.8; stroke-linejoin: miter; stroke-linecap: square"/>
   </g>
   <g id="patch_10">
    <path d="M 40.603125 22.318125
L 403.505982 22.318125
" style="fill: none; stroke: #000000; stroke-width: 0.8; stroke-linejoin: miter; stroke-linecap: square"/>
   </g>
   <g id="patch_11">
    <path d="M 136.629531 111.948563
Q 164.951621 170.916132 192.789657 228.875885
" style="fill: none; stroke: #ea580c; stroke-linecap: round"/>
    <path d="M 192.860691 224.404314
L 192.789657 228.875885
L 189.25502 226.136115
" style="fill: none; stroke: #ea580c; stroke-linecap: round"/>
   </g>
   <g id="text_15">
    <!-- shortest Euclidean distance -->
    <g style="fill: #ea580c" transform="translate(63.284554 106.064938) scale(0.1 -0.1)">
     <defs>
      <path id="DejaVuSans-73" d="M 2834 3397
L 2834 2853
Q 2591 2978 2328 3040
Q 2066 3103 1784 3103
Q 1356 3103 1142 2972
Q 928 2841 928 2578
Q 928 2378 1081 2264
Q 1234 2150 1697 2047
L 1894 2003
Q 2506 1872 2764 1633
Q 3022 1394 3022 966
Q 3022 478 2636 193
Q 2250 -91 1575 -91
Q 1294 -91 989 -36
Q 684 19 347 128
L 347 722
Q 666 556 975 473
Q 1284 391 1588 391
Q 1994 391 2212 530
Q 2431 669 2431 922
Q 2431 1156 2273 1281
Q 2116 1406 1581 1522
L 1381 1569
Q 847 1681 609 1914
Q 372 2147 372 2553
Q 372 3047 722 3315
Q 1072 3584 1716 3584
Q 2034 3584 2315 3537
Q 2597 3491 2834 3397
z
" transform="scale(0.015625)"/>
      <path id="DejaVuSans-68" d="M 3513 2113
L 3513 0
L 2938 0
L 2938 2094
Q 2938 2591 2744 2837
Q 2550 3084 2163 3084
Q 1697 3084 1428 2787
Q 1159 2491 1159 1978
L 1159 0
L 581 0
L 581 4863
L 1159 4863
L 1159 2956
Q 1366 3272 1645 3428
Q 1925 3584 2291 3584
Q 2894 3584 3203 3211
Q 3513 2838 3513 2113
z
" transform="scale(0.015625)"/>
      <path id="DejaVuSans-45" d="M 628 4666
L 3578 4666
L 3578 4134
L 1259 4134
L 1259 2753
L 3481 2753
L 3481 2222
L 1259 2222
L 1259 531
L 3634 531
L 3634 0
L 628 0
L 628 4666
z
" transform="scale(0.015625)"/>
     </defs>
     <use xlink:href="#DejaVuSans-73"/>
     <use xlink:href="#DejaVuSans-68" x="52.099609"/>
     <use xlink:href="#DejaVuSans-6f" x="115.478516"/>
     <use xlink:href="#DejaVuSans-72" x="176.660156"/>
     <use xlink:href="#DejaVuSans-74" x="217.773438"/>
     <use xlink:href="#DejaVuSans-65" x="256.982422"/>
     <use xlink:href="#DejaVuSans-73" x="318.505859"/>
     <use xlink:href="#DejaVuSans-74" x="370.605469"/>
     <use xlink:href="#DejaVuSans-20" x="409.814453"/>
     <use xlink:href="#DejaVuSans-45" x="441.601562"/>
     <use xlink:href="#DejaVuSans-75" x="504.785156"/>
     <use xlink:href="#DejaVuSans-63" x="568.164062"/>
     <use xlink:href="#DejaVuSans-6c" x="623.144531"/>
     <use xlink:href="#DejaVuSans-69" x="650.927734"/>
     <use xlink:href="#DejaVuSans-64" x="678.710938"/>
     <use xlink:href="#DejaVuSans-65" x="742.1875"/>
     <use xlink:href="#DejaVuSans-61" x="803.710938"/>
     <use xlink:href="#DejaVuSans-6e" x="864.990234"/>
     <use xlink:href="#DejaVuSans-20" x="928.369141"/>
     <use xlink:href="#DejaVuSans-64" x="960.15625"/>
     <use xlink:href="#DejaVuSans-69" x="1023.632812"/>
     <use xlink:href="#DejaVuSans-73" x="1051.416016"/>
     <use xlink:href="#DejaVuSans-74" x="1103.515625"/>
     <use xlink:href="#DejaVuSans-61" x="1142.724609"/>
     <use xlink:href="#DejaVuSans-6e" x="1204.003906"/>
     <use xlink:href="#DejaVuSans-63" x="1267.382812"/>
     <use xlink:href="#DejaVuSans-65" x="1322.363281"/>
    </g>
   </g>
   <g id="text_16">
    <!-- mutant feasible polytope -->
    <g style="fill: #2563eb" transform="translate(66.774004 355.560652) scale(0.1 -0.1)">
     <defs>
      <path id="DejaVuSans-6d" d="M 3328 2828
Q 3544 3216 3844 3400
Q 4144 3584 4550 3584
Q 5097 3584 5394 3201
Q 5691 2819 5691 2113
L 5691 0
L 5113 0
L 5113 2094
Q 5113 2597 4934 2840
Q 4756 3084 4391 3084
Q 3944 3084 3684 2787
Q 3425 2491 3425 1978
L 3425 0
L 2847 0
L 2847 2094
Q 2847 2600 2669 2842
Q 2491 3084 2119 3084
Q 1678 3084 1418 2786
Q 1159 2488 1159 1978
L 1159 0
L 581 0
L 581 3500
L 1159 3500
L 1159 2956
Q 1356 3278 1631 3431
Q 1906 3584 2284 3584
Q 2666 3584 2933 3390
Q 3200 3197 3328 2828
z
" transform="scale(0.015625)"/>
      <path id="DejaVuSans-62" d="M 3116 1747
Q 3116 2381 2855 2742
Q 2594 3103 2138 3103
Q 1681 3103 1420 2742
Q 1159 2381 1159 1747
Q 1159 1113 1420 752
Q 1681 391 2138 391
Q 2594 391 2855 752
Q 3116 1113 3116 1747
z
M 1159 2969
Q 1341 3281 1617 3432
Q 1894 3584 2278 3584
Q 2916 3584 3314 3078
Q 3713 2572 3713 1747
Q 3713 922 3314 415
Q 2916 -91 2278 -91
Q 1894 -91 1617 61
Q 1341 213 1159 525
L 1159 0
L 581 0
L 581 4863
L 1159 4863
L 1159 2969
z
" transform="scale(0.015625)"/>
      <path id="DejaVuSans-70" d="M 1159 525
L 1159 -1331
L 581 -1331
L 581 3500
L 1159 3500
L 1159 2969
Q 1341 3281 1617 3432
Q 1894 3584 2278 3584
Q 2916 3584 3314 3078
Q 3713 2572 3713 1747
Q 3713 922 3314 415
Q 2916 -91 2278 -91
Q 1894 -91 1617 61
Q 1341 213 1159 525
z
M 3116 1747
Q 3116 2381 2855 2742
Q 2594 3103 2138 3103
Q 1681 3103 1420 2742
Q 1159 2381 1159 1747
Q 1159 1113 1420 752
Q 1681 391 2138 391
Q 2594 391 2855 752
Q 3116 1113 3116 1747
z
" transform="scale(0.015625)"/>
      <path id="DejaVuSans-79" d="M 2059 -325
Q 1816 -950 1584 -1140
Q 1353 -1331 966 -1331
L 506 -1331
L 506 -850
L 844 -850
Q 1081 -850 1212 -737
Q 1344 -625 1503 -206
L 1606 56
L 191 3500
L 800 3500
L 1894 763
L 2988 3500
L 3597 3500
L 2059 -325
z
" transform="scale(0.015625)"/>
     </defs>
     <use xlink:href="#DejaVuSans-6d"/>
     <use xlink:href="#DejaVuSans-75" x="97.412109"/>
     <use xlink:href="#DejaVuSans-74" x="160.791016"/>
     <use xlink:href="#DejaVuSans-61" x="200"/>
     <use xlink:href="#DejaVuSans-6e" x="261.279297"/>
     <use xlink:href="#DejaVuSans-74" x="324.658203"/>
     <use xlink:href="#DejaVuSans-20" x="363.867188"/>
     <use xlink:href="#DejaVuSans-66" x="395.654297"/>
     <use xlink:href="#DejaVuSans-65" x="430.859375"/>
     <use xlink:href="#DejaVuSans-61" x="492.382812"/>
     <use xlink:href="#DejaVuSans-73" x="553.662109"/>
     <use xlink:href="#DejaVuSans-69" x="605.761719"/>
     <use xlink:href="#DejaVuSans-62" x="633.544922"/>
     <use xlink:href="#DejaVuSans-6c" x="697.021484"/>
     <use xlink:href="#DejaVuSans-65" x="724.804688"/>
     <use xlink:href="#DejaVuSans-20" x="786.328125"/>
     <use xlink:href="#DejaVuSans-70" x="818.115234"/>
     <use xlink:href="#DejaVuSans-6f" x="881.591797"/>
     <use xlink:href="#DejaVuSans-6c" x="942.773438"/>
     <use xlink:href="#DejaVuSans-79" x="970.556641"/>
     <use xlink:href="#DejaVuSans-74" x="1029.736328"/>
     <use xlink:href="#DejaVuSans-6f" x="1068.945312"/>
     <use xlink:href="#DejaVuSans-70" x="1130.126953"/>
     <use xlink:href="#DejaVuSans-65" x="1193.603516"/>
    </g>
   </g>
   <g id="text_17">
    <!-- Quadratic MOMA is a projection onto the mutant feasible set -->
    <g transform="translate(40.021116 16.318125) scale(0.12 -0.12)">
     <defs>
      <path id="DejaVuSans-51" d="M 2522 4238
Q 1834 4238 1429 3725
Q 1025 3213 1025 2328
Q 1025 1447 1429 934
Q 1834 422 2522 422
Q 3209 422 3611 934
Q 4013 1447 4013 2328
Q 4013 3213 3611 3725
Q 3209 4238 2522 4238
z
M 3406 84
L 4238 -825
L 3475 -825
L 2784 -78
Q 2681 -84 2626 -87
Q 2572 -91 2522 -91
Q 1538 -91 948 567
Q 359 1225 359 2328
Q 359 3434 948 4092
Q 1538 4750 2522 4750
Q 3503 4750 4090 4092
Q 4678 3434 4678 2328
Q 4678 1516 4351 937
Q 4025 359 3406 84
z
" transform="scale(0.015625)"/>
      <path id="DejaVuSans-4d" d="M 628 4666
L 1569 4666
L 2759 1491
L 3956 4666
L 4897 4666
L 4897 0
L 4281 0
L 4281 4097
L 3078 897
L 2444 897
L 1241 4097
L 1241 0
L 628 0
L 628 4666
z
" transform="scale(0.015625)"/>
      <path id="DejaVuSans-4f" d="M 2522 4238
Q 1834 4238 1429 3725
Q 1025 3213 1025 2328
Q 1025 1447 1429 934
Q 1834 422 2522 422
Q 3209 422 3611 934
Q 4013 1447 4013 2328
Q 4013 3213 3611 3725
Q 3209 4238 2522 4238
z
M 2522 4750
Q 3503 4750 4090 4092
Q 4678 3434 4678 2328
Q 4678 1225 4090 567
Q 3503 -91 2522 -91
Q 1538 -91 948 565
Q 359 1222 359 2328
Q 359 3434 948 4092
Q 1538 4750 2522 4750
z
" transform="scale(0.015625)"/>
      <path id="DejaVuSans-41" d="M 2188 4044
L 1331 1722
L 3047 1722
L 2188 4044
z
M 1831 4666
L 2547 4666
L 4325 0
L 3669 0
L 3244 1197
L 1141 1197
L 716 0
L 50 0
L 1831 4666
z
" transform="scale(0.015625)"/>
      <path id="DejaVuSans-6a" d="M 603 3500
L 1178 3500
L 1178 -63
Q 1178 -731 923 -1031
Q 669 -1331 103 -1331
L -116 -1331
L -116 -844
L 38 -844
Q 366 -844 484 -692
Q 603 -541 603 -63
L 603 3500
z
M 603 4863
L 1178 4863
L 1178 4134
L 603 4134
L 603 4863
z
" transform="scale(0.015625)"/>
     </defs>
     <use xlink:href="#DejaVuSans-51"/>
     <use xlink:href="#DejaVuSans-75" x="78.710938"/>
     <use xlink:href="#DejaVuSans-61" x="142.089844"/>
     <use xlink:href="#DejaVuSans-64" x="203.369141"/>
     <use xlink:href="#DejaVuSans-72" x="266.845703"/>
     <use xlink:href="#DejaVuSans-61" x="307.958984"/>
     <use xlink:href="#DejaVuSans-74" x="369.238281"/>
     <use xlink:href="#DejaVuSans-69" x="408.447266"/>
     <use xlink:href="#DejaVuSans-63" x="436.230469"/>
     <use xlink:href="#DejaVuSans-20" x="491.210938"/>
     <use xlink:href="#DejaVuSans-4d" x="522.998047"/>
     <use xlink:href="#DejaVuSans-4f" x="609.277344"/>
     <use xlink:href="#DejaVuSans-4d" x="687.988281"/>
     <use xlink:href="#DejaVuSans-41" x="774.267578"/>
     <use xlink:href="#DejaVuSans-20" x="842.675781"/>
     <use xlink:href="#DejaVuSans-69" x="874.462891"/>
     <use xlink:href="#DejaVuSans-73" x="902.246094"/>
     <use xlink:href="#DejaVuSans-20" x="954.345703"/>
     <use xlink:href="#DejaVuSans-61" x="986.132812"/>
     <use xlink:href="#DejaVuSans-20" x="1047.412109"/>
     <use xlink:href="#DejaVuSans-70" x="1079.199219"/>
     <use xlink:href="#DejaVuSans-72" x="1142.675781"/>
     <use xlink:href="#DejaVuSans-6f" x="1181.539062"/>
     <use xlink:href="#DejaVuSans-6a" x="1242.720703"/>
     <use xlink:href="#DejaVuSans-65" x="1270.503906"/>
     <use xlink:href="#DejaVuSans-63" x="1332.027344"/>
     <use xlink:href="#DejaVuSans-74" x="1387.007812"/>
     <use xlink:href="#DejaVuSans-69" x="1426.216797"/>
     <use xlink:href="#DejaVuSans-6f" x="1454"/>
     <use xlink:href="#DejaVuSans-6e" x="1515.181641"/>
     <use xlink:href="#DejaVuSans-20" x="1578.560547"/>
     <use xlink:href="#DejaVuSans-6f" x="1610.347656"/>
     <use xlink:href="#DejaVuSans-6e" x="1671.529297"/>
     <use xlink:href="#DejaVuSans-74" x="1734.908203"/>
     <use xlink:href="#DejaVuSans-6f" x="1774.117188"/>
     <use xlink:href="#DejaVuSans-20" x="1835.298828"/>
     <use xlink:href="#DejaVuSans-74" x="1867.085938"/>
     <use xlink:href="#DejaVuSans-68" x="1906.294922"/>
     <use xlink:href="#DejaVuSans-65" x="1969.673828"/>
     <use xlink:href="#DejaVuSans-20" x="2031.197266"/>
     <use xlink:href="#DejaVuSans-6d" x="2062.984375"/>
     <use xlink:href="#DejaVuSans-75" x="2160.396484"/>
     <use xlink:href="#DejaVuSans-74" x="2223.775391"/>
     <use xlink:href="#DejaVuSans-61" x="2262.984375"/>
     <use xlink:href="#DejaVuSans-6e" x="2324.263672"/>
     <use xlink:href="#DejaVuSans-74" x="2387.642578"/>
     <use xlink:href="#DejaVuSans-20" x="2426.851562"/>
     <use xlink:href="#DejaVuSans-66" x="2458.638672"/>
     <use xlink:href="#DejaVuSans-65" x="2493.84375"/>
     <use xlink:href="#DejaVuSans-61" x="2555.367188"/>
     <use xlink:href="#DejaVuSans-73" x="2616.646484"/>
     <use xlink:href="#DejaVuSans-69" x="2668.746094"/>
     <use xlink:href="#DejaVuSans-62" x="2696.529297"/>
     <use xlink:href="#DejaVuSans-6c" x="2760.005859"/>
     <use xlink:href="#DejaVuSans-65" x="2787.789062"/>
     <use xlink:href="#DejaVuSans-20" x="2849.3125"/>
     <use xlink:href="#DejaVuSans-73" x="2881.099609"/>
     <use xlink:href="#DejaVuSans-65" x="2933.199219"/>
     <use xlink:href="#DejaVuSans-74" x="2994.722656"/>
    </g>
   </g>
   <g id="PathCollection_1">
    <defs>
     <path id="m4d2670f149" d="M 0 4.873397
C 1.29244 4.873397 2.532119 4.359905 3.446012 3.446012
C 4.359905 2.532119 4.873397 1.29244 4.873397 0
C 4.873397 -1.29244 4.359905 -2.532119 3.446012 -3.446012
C 2.532119 -4.359905 1.29244 -4.873397 0 -4.873397
C -1.29244 -4.873397 -2.532119 -4.359905 -3.446012 -3.446012
C -4.359905 -2.532119 -4.873397 -1.29244 -4.873397 0
C -4.873397 1.29244 -4.359905 2.532119 -3.446012 3.446012
C -2.532119 4.359905 -1.29244 4.873397 0 4.873397
z
" style="stroke: #7c3aed"/>
    </defs>
    <g clip-path="url(#pfeaa82b00c)">
     <use xlink:href="#m4d2670f149" x="298.822466" y="127.001641" style="fill: #7c3aed; stroke: #7c3aed"/>
    </g>
   </g>
   <g id="PathCollection_2">
    <defs>
     <path id="m8aa0b74107" d="M 0 4.873397
C 1.29244 4.873397 2.532119 4.359905 3.446012 3.446012
C 4.359905 2.532119 4.873397 1.29244 4.873397 0
C 4.873397 -1.29244 4.359905 -2.532119 3.446012 -3.446012
C 2.532119 -4.359905 1.29244 -4.873397 0 -4.873397
C -1.29244 -4.873397 -2.532119 -4.359905 -3.446012 -3.446012
C -4.359905 -2.532119 -4.873397 -1.29244 -4.873397 0
C -4.873397 1.29244 -4.359905 2.532119 -3.446012 3.446012
C -2.532119 4.359905 -1.29244 4.873397 0 4.873397
z
" style="stroke: #ea580c"/>
    </defs>
    <g clip-path="url(#pfeaa82b00c)">
     <use xlink:href="#m8aa0b74107" x="194.138949" y="231.685158" style="fill: #ea580c; stroke: #ea580c"/>
    </g>
   </g>
   <g id="PathCollection_3">
    <defs>
     <path id="m7a995db41f" d="M 0 -6.519202
L -1.463652 -2.014544
L -6.20013 -2.014544
L -2.368239 0.769487
L -3.831891 5.274146
L -0 2.490114
L 3.831891 5.274146
L 2.368239 0.769487
L 6.20013 -2.014544
L 1.463652 -2.014544
z
" style="stroke: #059669"/>
    </defs>
    <g clip-path="url(#pfeaa82b00c)">
     <use xlink:href="#m7a995db41f" x="124.349938" y="161.896147" style="fill: #059669; stroke: #059669"/>
    </g>
   </g>
   <g id="legend_1">
    <g id="patch_12">
     <path d="M 264.940982 63.945625
L 397.905982 63.945625
Q 399.505982 63.945625 399.505982 62.345625
L 399.505982 27.918125
Q 399.505982 26.318125 397.905982 26.318125
L 264.940982 26.318125
Q 263.340982 26.318125 263.340982 27.918125
L 263.340982 62.345625
Q 263.340982 63.945625 264.940982 63.945625
z
" style="fill: #ffffff; opacity: 0.8; stroke: #cccccc; stroke-linejoin: miter"/>
    </g>
    <g id="PathCollection_4">
     <g>
      <use xlink:href="#m4d2670f149" x="274.540982" y="33.496875" style="fill: #7c3aed; stroke: #7c3aed"/>
     </g>
    </g>
    <g id="text_18">
     <!-- WT reference -->
     <g transform="translate(288.940982 35.596875) scale(0.08 -0.08)">
      <defs>
       <path id="DejaVuSans-57" d="M 213 4666
L 850 4666
L 1831 722
L 2809 4666
L 3519 4666
L 4500 722
L 5478 4666
L 6119 4666
L 4947 0
L 4153 0
L 3169 4050
L 2175 0
L 1381 0
L 213 4666
z
" transform="scale(0.015625)"/>
       <path id="DejaVuSans-54" d="M -19 4666
L 3928 4666
L 3928 4134
L 2272 4134
L 2272 0
L 1638 0
L 1638 4134
L -19 4134
L -19 4666
z
" transform="scale(0.015625)"/>
      </defs>
      <use xlink:href="#DejaVuSans-57"/>
      <use xlink:href="#DejaVuSans-54" x="98.876953"/>
      <use xlink:href="#DejaVuSans-20" x="159.960938"/>
      <use xlink:href="#DejaVuSans-72" x="191.748047"/>
      <use xlink:href="#DejaVuSans-65" x="230.611328"/>
      <use xlink:href="#DejaVuSans-66" x="292.134766"/>
      <use xlink:href="#DejaVuSans-65" x="327.339844"/>
      <use xlink:href="#DejaVuSans-72" x="388.863281"/>
      <use xlink:href="#DejaVuSans-65" x="427.726562"/>
      <use xlink:href="#DejaVuSans-6e" x="489.25"/>
      <use xlink:href="#DejaVuSans-63" x="552.628906"/>
      <use xlink:href="#DejaVuSans-65" x="607.609375"/>
     </g>
    </g>
    <g id="PathCollection_5">
     <g>
      <use xlink:href="#m8aa0b74107" x="274.540982" y="45.239375" style="fill: #ea580c; stroke: #ea580c"/>
     </g>
    </g>
    <g id="text_19">
     <!-- QP MOMA projection -->
     <g transform="translate(288.940982 47.339375) scale(0.08 -0.08)">
      <defs>
       <path id="DejaVuSans-50" d="M 1259 4147
L 1259 2394
L 2053 2394
Q 2494 2394 2734 2622
Q 2975 2850 2975 3272
Q 2975 3691 2734 3919
Q 2494 4147 2053 4147
L 1259 4147
z
M 628 4666
L 2053 4666
Q 2838 4666 3239 4311
Q 3641 3956 3641 3272
Q 3641 2581 3239 2228
Q 2838 1875 2053 1875
L 1259 1875
L 1259 0
L 628 0
L 628 4666
z
" transform="scale(0.015625)"/>
      </defs>
      <use xlink:href="#DejaVuSans-51"/>
      <use xlink:href="#DejaVuSans-50" x="78.710938"/>
      <use xlink:href="#DejaVuSans-20" x="139.013672"/>
      <use xlink:href="#DejaVuSans-4d" x="170.800781"/>
      <use xlink:href="#DejaVuSans-4f" x="257.080078"/>
      <use xlink:href="#DejaVuSans-4d" x="335.791016"/>
      <use xlink:href="#DejaVuSans-41" x="422.070312"/>
      <use xlink:href="#DejaVuSans-20" x="490.478516"/>
      <use xlink:href="#DejaVuSans-70" x="522.265625"/>
      <use xlink:href="#DejaVuSans-72" x="585.742188"/>
      <use xlink:href="#DejaVuSans-6f" x="624.605469"/>
      <use xlink:href="#DejaVuSans-6a" x="685.787109"/>
      <use xlink:href="#DejaVuSans-65" x="713.570312"/>
      <use xlink:href="#DejaVuSans-63" x="775.09375"/>
      <use xlink:href="#DejaVuSans-74" x="830.074219"/>
      <use xlink:href="#DejaVuSans-69" x="869.283203"/>
      <use xlink:href="#DejaVuSans-6f" x="897.066406"/>
      <use xlink:href="#DejaVuSans-6e" x="958.248047"/>
     </g>
    </g>
    <g id="PathCollection_6">
     <g>
      <use xlink:href="#m7a995db41f" x="274.540982" y="56.981875" style="fill: #059669; stroke: #059669"/>
     </g>
    </g>
    <g id="text_20">
     <!-- growth-optimal FBA vertex -->
     <g transform="translate(288.940982 59.081875) scale(0.08 -0.08)">
      <defs>
       <path id="DejaVuSans-67" d="M 2906 1791
Q 2906 2416 2648 2759
Q 2391 3103 1925 3103
Q 1463 3103 1205 2759
Q 947 2416 947 1791
Q 947 1169 1205 825
Q 1463 481 1925 481
Q 2391 481 2648 825
Q 2906 1169 2906 1791
z
M 3481 434
Q 3481 -459 3084 -895
Q 2688 -1331 1869 -1331
Q 1566 -1331 1297 -1286
Q 1028 -1241 775 -1147
L 775 -588
Q 1028 -725 1275 -790
Q 1522 -856 1778 -856
Q 2344 -856 2625 -561
Q 2906 -266 2906 331
L 2906 616
Q 2728 306 2450 153
Q 2172 0 1784 0
Q 1141 0 747 490
Q 353 981 353 1791
Q 353 2603 747 3093
Q 1141 3584 1784 3584
Q 2172 3584 2450 3431
Q 2728 3278 2906 2969
L 2906 3500
L 3481 3500
L 3481 434
z
" transform="scale(0.015625)"/>
       <path id="DejaVuSans-77" d="M 269 3500
L 844 3500
L 1563 769
L 2278 3500
L 2956 3500
L 3675 769
L 4391 3500
L 4966 3500
L 4050 0
L 3372 0
L 2619 2869
L 1863 0
L 1184 0
L 269 3500
z
" transform="scale(0.015625)"/>
       <path id="DejaVuSans-2d" d="M 313 2009
L 1997 2009
L 1997 1497
L 313 1497
L 313 2009
z
" transform="scale(0.015625)"/>
       <path id="DejaVuSans-46" d="M 628 4666
L 3309 4666
L 3309 4134
L 1259 4134
L 1259 2759
L 3109 2759
L 3109 2228
L 1259 2228
L 1259 0
L 628 0
L 628 4666
z
" transform="scale(0.015625)"/>
       <path id="DejaVuSans-42" d="M 1259 2228
L 1259 519
L 2272 519
Q 2781 519 3026 730
Q 3272 941 3272 1375
Q 3272 1813 3026 2020
Q 2781 2228 2272 2228
L 1259 2228
z
M 1259 4147
L 1259 2741
L 2194 2741
Q 2656 2741 2882 2914
Q 3109 3088 3109 3444
Q 3109 3797 2882 3972
Q 2656 4147 2194 4147
L 1259 4147
z
M 628 4666
L 2241 4666
Q 2963 4666 3353 4366
Q 3744 4066 3744 3513
Q 3744 3084 3544 2831
Q 3344 2578 2956 2516
Q 3422 2416 3680 2098
Q 3938 1781 3938 1306
Q 3938 681 3513 340
Q 3088 0 2303 0
L 628 0
L 628 4666
z
" transform="scale(0.015625)"/>
       <path id="DejaVuSans-76" d="M 191 3500
L 800 3500
L 1894 563
L 2988 3500
L 3597 3500
L 2284 0
L 1503 0
L 191 3500
z
" transform="scale(0.015625)"/>
      </defs>
      <use xlink:href="#DejaVuSans-67"/>
      <use xlink:href="#DejaVuSans-72" x="63.476562"/>
      <use xlink:href="#DejaVuSans-6f" x="102.339844"/>
      <use xlink:href="#DejaVuSans-77" x="163.521484"/>
      <use xlink:href="#DejaVuSans-74" x="245.308594"/>
      <use xlink:href="#DejaVuSans-68" x="284.517578"/>
      <use xlink:href="#DejaVuSans-2d" x="347.896484"/>
      <use xlink:href="#DejaVuSans-6f" x="385.855469"/>
      <use xlink:href="#DejaVuSans-70" x="447.037109"/>
      <use xlink:href="#DejaVuSans-74" x="510.513672"/>
      <use xlink:href="#DejaVuSans-69" x="549.722656"/>
      <use xlink:href="#DejaVuSans-6d" x="577.505859"/>
      <use xlink:href="#DejaVuSans-61" x="674.917969"/>
      <use xlink:href="#DejaVuSans-6c" x="736.197266"/>
      <use xlink:href="#DejaVuSans-20" x="763.980469"/>
      <use xlink:href="#DejaVuSans-46" x="795.767578"/>
      <use xlink:href="#DejaVuSans-42" x="853.287109"/>
      <use xlink:href="#DejaVuSans-41" x="921.890625"/>
      <use xlink:href="#DejaVuSans-20" x="990.298828"/>
      <use xlink:href="#DejaVuSans-76" x="1022.085938"/>
      <use xlink:href="#DejaVuSans-65" x="1081.265625"/>
      <use xlink:href="#DejaVuSans-72" x="1142.789062"/>
      <use xlink:href="#DejaVuSans-74" x="1183.902344"/>
      <use xlink:href="#DejaVuSans-65" x="1223.111328"/>
      <use xlink:href="#DejaVuSans-78" x="1282.884766"/>
     </g>
    </g>
   </g>
  </g>
 </g>
 <defs>
  <clipPath id="pfeaa82b00c">
   <rect x="40.603125" y="22.318125" width="362.902857" height="362.902857"/>
  </clipPath>
 </defs>
</svg>
